<svg width="62" height="56" viewBox="0 0 62 56" fill="none" xmlns="http://www.w3.org/2000/svg">
<path d="M53.9852 10.4351H43.8123V7.83572C43.8123 5.70896 43.0743 3.91698 41.5982 2.45976C40.1222 1.00254 38.307 0.273926 36.1527 0.273926H25.8602C23.7059 0.273926 21.8908 1.00254 20.4147 2.45976C18.9386 3.91698 18.2006 5.70896 18.2006 7.83572V10.4351H8.02774C5.87348 10.4351 4.05832 11.144 2.58226 12.5618C1.1062 13.9797 0.368164 15.7914 0.368164 17.9969V28.0399C0.368164 29.694 1.20593 30.5211 2.88146 30.5211V50.7253C2.88146 52.0643 3.40008 53.2459 4.43731 54.2698C5.47455 55.2938 6.67136 55.8058 8.02774 55.8058H53.9852C55.3416 55.8058 56.5384 55.2938 57.5756 54.2698C58.6128 53.2459 59.1315 52.0643 59.1315 50.7253V30.5211C60.807 30.5211 61.6448 29.694 61.6448 28.0399V17.9969C61.6448 15.7914 60.9067 13.9797 59.4307 12.5618C57.9546 11.144 56.1394 10.4351 53.9852 10.4351ZM23.3469 7.83572C23.3469 7.1268 23.5862 6.53604 24.065 6.06342C24.5437 5.59081 25.1421 5.35451 25.8602 5.35451H36.1527C36.8708 5.35451 37.4692 5.59081 37.948 6.06342C38.4267 6.53604 38.666 7.1268 38.666 7.83572V10.4351H23.3469V7.83572ZM8.02774 50.7253V30.5211H23.3469V38.0829C23.3469 39.5007 23.8456 40.7019 24.8429 41.6866C25.8402 42.6712 27.057 43.1635 28.4932 43.1635H33.5198C34.9559 43.1635 36.1727 42.6712 37.17 41.6866C38.1674 40.7019 38.666 39.5007 38.666 38.0829V30.5211H53.9852V50.7253H8.02774ZM28.4932 38.0829V30.5211H33.5198V38.0829H28.4932ZM56.4985 25.5587H5.51444V17.9969C5.51444 16.264 6.35221 15.3975 8.02774 15.3975H53.9852C55.6607 15.3975 56.4985 16.264 56.4985 17.9969V25.5587Z" fill="white"/>
</svg>
