<svg width="124" height="64" viewBox="0 0 124 64" fill="none" xmlns="http://www.w3.org/2000/svg">
<path d="M73.7631 58.3487C73.7483 58.7544 73.6946 59.1536 73.6041 59.5315C73.5026 59.952 73.369 60.3495 73.2067 60.7142C73.053 61.0856 72.8295 61.3628 72.5708 61.5027C71.9526 61.8531 71.2813 61.8531 70.6631 61.5027C70.406 61.2379 70.1663 60.9296 69.9477 60.5828C69.7686 60.1878 69.634 59.7426 69.5503 59.2686C69.4588 58.7556 69.4055 58.226 69.3913 57.6916C69.3995 57.0701 69.4529 56.4523 69.5503 55.8518C69.6924 55.3553 69.8516 54.8726 70.0272 54.4063C70.2585 54.0269 70.5273 53.7158 70.8221 53.4863C71.1224 53.2721 71.4498 53.1819 71.7759 53.2235C72.2127 53.1881 72.6484 53.3232 73.0477 53.6178L73.6836 54.1434V58.3487H73.7631ZM75.1938 62.1598V46.1271H73.7631V51.9094C73.6041 51.7779 73.3656 51.6465 73.0477 51.3837C72.6408 51.141 72.2064 51.0513 71.7759 51.1209C71.3418 51.1359 70.9121 51.2691 70.5041 51.5151C70.0402 51.7782 69.6092 52.179 69.2324 52.6979C68.831 53.2316 68.5054 53.9045 68.2785 54.6691C68.0084 55.6134 67.8725 56.6472 67.8811 57.6916C67.8765 58.583 67.9569 59.47 68.1196 60.32C68.2611 61.0608 68.5062 61.7361 68.8349 62.2912C69.144 62.8005 69.4912 63.2421 69.8683 63.6054C70.2999 63.8744 70.7582 64.0081 71.2195 63.9996C71.544 63.9989 71.8662 63.9101 72.1734 63.7368C72.4118 63.6053 72.6503 63.3425 72.8887 63.2111C73.1272 62.9483 73.2862 62.8169 73.3656 62.554C73.5246 62.2912 73.6041 62.1598 73.6041 62.0284L73.6836 63.6054H75.1143C75.1768 63.1307 75.2034 62.6452 75.1938 62.1598M65.576 59.1372C65.5608 59.5004 65.507 59.8563 65.417 60.1885C65.3286 60.5786 65.1597 60.9044 64.9401 61.1085C64.7597 61.4017 64.5427 61.626 64.3042 61.7655C64.0483 61.9159 63.7806 62.0044 63.5094 62.0284C63.0877 62.0754 62.6686 61.8905 62.3171 61.5027C62.1777 61.344 62.0671 61.1257 61.9971 60.871C61.9271 60.6164 61.9003 60.335 61.9196 60.0571C61.9071 59.7875 61.9343 59.5169 61.9991 59.2686C62.0767 58.9774 62.1843 58.7106 62.3171 58.4801C62.492 58.2025 62.7137 58.0192 62.953 57.9545C63.2601 57.7812 63.5823 57.6924 63.9068 57.6916H65.3375C65.4965 57.6916 65.576 57.6916 65.576 57.8231V59.1372ZM66.9273 55.3262C66.9646 54.7325 66.9115 54.1329 66.7726 53.5819C66.6338 53.031 66.4137 52.5463 66.1324 52.1722C65.4741 51.3356 64.6564 50.9161 63.8273 50.9894C63.4546 50.9629 63.0812 51.007 62.7145 51.1209C62.3966 51.2523 62.1581 51.3837 61.8402 51.5151C61.607 51.6091 61.3897 51.7888 61.2043 52.0408C61.0453 52.1722 60.8863 52.435 60.7274 52.5664L61.4427 54.1434C61.7148 53.8256 62.0082 53.561 62.3171 53.3549C62.7447 53.0619 63.2059 52.9273 63.6683 52.9607C64.1409 52.8988 64.6133 53.0826 65.0196 53.4863C65.1888 53.7277 65.3204 54.0328 65.4034 54.3758C65.4864 54.7189 65.5183 55.0899 65.4965 55.4576V55.8518H63.6683C62.7888 55.7608 61.9176 56.179 61.2043 57.0346C60.9246 57.418 60.7008 57.9006 60.5494 58.4466C60.3981 58.9926 60.323 59.588 60.3299 60.1885C60.3143 60.7832 60.3968 61.3737 60.5684 61.8969C60.7149 62.3754 60.934 62.7829 61.2043 63.0797C61.472 63.3764 61.7674 63.5984 62.0786 63.7368C62.392 63.8457 62.7124 63.8898 63.0325 63.8682C63.5191 63.8655 64.0023 63.7324 64.4632 63.4739C64.8931 63.1916 65.275 62.7406 65.576 62.1598V63.6054H66.9273V55.3262ZM58.0248 63.4739H59.4556V46.1271H58.0248V63.4739ZM55.0044 63.4739H56.4351V51.3837H55.0044V63.4739ZM54.9249 49.1496H56.5146V46.5213H54.9249V49.1496ZM52.2223 59.1372C52.1031 59.6806 51.9132 60.1741 51.666 60.5828C51.4187 60.9915 51.1203 61.3056 50.7916 61.5027C50.4284 61.6638 50.0548 61.752 49.6788 61.7655C49.3586 61.8063 49.0366 61.762 48.725 61.6341C48.5366 61.5641 48.3508 61.4764 48.1686 61.3713V56.5089C48.183 56.0605 48.2366 55.6179 48.3275 55.1947C48.4291 54.7742 48.5626 54.3767 48.725 54.012C48.9221 53.7181 49.135 53.4542 49.3608 53.2235C49.6571 52.987 49.9881 52.8958 50.3147 52.9607C50.6492 52.9335 50.9811 53.0706 51.2685 53.3549C51.5153 53.5889 51.7314 53.9016 51.9044 54.2748C52.0835 54.6699 52.2182 55.115 52.3018 55.589C52.3933 56.1021 52.4467 56.6316 52.4608 57.166C52.4356 57.8379 52.3554 58.501 52.2223 59.1372ZM53.0172 52.8293C52.7294 52.2813 52.3781 51.8344 51.9839 51.5151C51.5042 51.1885 50.9923 51.0103 50.4737 50.9894C50.18 50.9679 49.8858 51.0121 49.5993 51.1209C49.3826 51.2304 49.1702 51.3621 48.9634 51.5151C48.8044 51.6465 48.6455 51.9094 48.4865 52.0408C48.3275 52.1722 48.248 52.435 48.1686 52.5664V45.9957H46.7378V63.0797C47.1425 63.3636 47.5717 63.5409 48.0096 63.6054C48.5615 63.758 49.1193 63.8458 49.6788 63.8682C50.2524 63.9102 50.8239 63.7302 51.348 63.3425C51.8401 63.034 52.297 62.5896 52.6993 62.0284C53.0785 61.4391 53.3766 60.7221 53.5736 59.9257C53.8005 59.1017 53.9093 58.2023 53.8916 57.2974C53.8964 56.449 53.8158 55.6052 53.6531 54.8005C53.5372 54.0703 53.3194 53.3951 53.0172 52.8293M43.7968 63.4739H45.3071V46.1271H43.8763V63.4739H43.7968ZM36.4046 56.5089L38.1533 48.8868L39.902 56.5089H36.4046ZM37.4379 46.1271L33.2252 63.4739H34.8149L35.9277 58.6116H40.3789L41.4917 63.4739H43.2404L39.0277 46.1271H37.4379ZM30.6816 51.3837H28.9329L25.7535 56.3775V46.1271H24.3227V63.4739H25.7535V59.0058L26.7868 57.4288L29.3304 63.4739H31.0791L27.8201 55.8518L30.6816 51.3837ZM20.11 50.9894C19.7868 51.0128 19.4665 51.1011 19.1561 51.2523C18.9041 51.3717 18.6633 51.5487 18.4408 51.7779C18.2023 52.0408 18.0433 52.1722 17.9639 52.435C17.8049 52.6979 17.7254 52.9607 17.6459 53.0921L17.5664 51.2523H16.2152V63.3425H17.6459V57.8231C17.6328 57.2504 17.6595 56.6772 17.7254 56.1147C17.7885 55.5482 17.924 55.0106 18.1228 54.5377C18.2932 54.1246 18.5089 53.768 18.7587 53.4863C19.0786 53.2176 19.4333 53.0823 19.792 53.0921C20.0255 53.0697 20.2593 53.1283 20.4783 53.2641C20.6973 53.3999 20.8968 53.6099 21.0638 53.8806C21.2408 54.2224 21.3742 54.6197 21.4561 55.0487C21.5381 55.4777 21.5669 55.9297 21.5407 56.3775V63.4739H22.9715V56.2461C23.0159 54.8753 22.7621 53.5234 22.2561 52.435C21.9912 51.9343 21.6592 51.5429 21.2866 51.2919C20.914 51.0409 20.5111 50.9373 20.11 50.9894M13.3537 59.1372C13.3385 59.5004 13.2847 59.8563 13.1947 60.1885C13.1063 60.5786 12.9374 60.9044 12.7178 61.1085C12.5374 61.4017 12.3203 61.626 12.0819 61.7655C11.826 61.9159 11.5582 62.0044 11.287 62.0284C10.8654 62.0754 10.4462 61.8905 10.0947 61.5027C9.95539 61.344 9.84479 61.1257 9.77477 60.871C9.70476 60.6164 9.67798 60.335 9.6973 60.0571C9.68471 59.7875 9.71199 59.5169 9.77679 59.2686C9.85436 58.9774 9.96194 58.7106 10.0947 58.4801C10.2696 58.2025 10.4913 58.0192 10.7306 57.9545C11.0377 57.7812 11.3599 57.6924 11.6845 57.6916H13.1152C13.2742 57.6916 13.3537 57.6916 13.3537 57.8231V59.1372ZM14.7844 55.3262C14.8218 54.7325 14.7686 54.1329 14.6298 53.5819C14.4909 53.031 14.2708 52.5463 13.9895 52.1722C13.3312 51.3356 12.5136 50.9161 11.6845 50.9894C11.3117 50.9629 10.9383 51.007 10.5716 51.1209C10.2537 51.2523 10.0152 51.3837 9.6973 51.5151C9.46415 51.6091 9.2468 51.7888 9.06141 52.0408C8.90244 52.1722 8.74347 52.435 8.5845 52.5664L9.29987 54.1434C9.57191 53.8256 9.86532 53.561 10.1742 53.3549C10.6039 53.0742 11.0636 52.9401 11.5255 52.9607C11.998 52.8988 12.4705 53.0826 12.8767 53.4863C13.0459 53.7277 13.1776 54.0328 13.2606 54.3758C13.3435 54.7189 13.3755 55.0899 13.3537 55.4576V55.8518H11.5255C10.646 55.7608 9.7747 56.179 9.06141 57.0346C8.78176 57.418 8.55795 57.9006 8.40658 58.4466C8.25521 58.9926 8.18019 59.588 8.18706 60.1885C8.17148 60.7832 8.2539 61.3737 8.42552 61.8969C8.57209 62.3754 8.79118 62.7829 9.06141 63.0797C9.32911 63.3764 9.6245 63.5984 9.93576 63.7368C10.2492 63.8457 10.5696 63.8898 10.8896 63.8682C11.3763 63.8655 11.8595 63.7324 12.3203 63.4739C12.7503 63.1916 13.1322 62.7406 13.4331 62.1598V63.6054H14.7844V55.3262ZM5.723 60.0571C5.56933 60.4285 5.3458 60.7057 5.08711 60.8456C4.84865 60.977 4.53071 61.1085 4.29225 61.2399C3.9743 61.2399 3.73585 61.3713 3.4179 61.3713H1.51024V55.589H3.49739C3.791 55.5731 4.08467 55.6172 4.37173 55.7204C4.68968 55.8518 4.92814 55.9832 5.16659 56.1147C5.38888 56.2968 5.58014 56.5678 5.723 56.9032C5.87956 57.3885 5.96145 57.9301 5.96145 58.4801C5.96145 59.0302 5.87956 59.5718 5.723 60.0571M1.51024 48.2297H3.4179C3.65911 48.2083 3.90079 48.2527 4.13328 48.3611C4.36821 48.3506 4.59635 48.492 4.76916 48.7554C4.96589 48.9473 5.12998 49.2186 5.24608 49.5439C5.35293 49.9593 5.40703 50.4066 5.40505 50.858C5.4085 51.2674 5.35406 51.6724 5.24608 52.0408C5.1076 52.2975 4.94689 52.519 4.76916 52.6979C4.59635 52.9612 4.36821 53.1026 4.13328 53.0921C3.90079 53.2005 3.65911 53.2449 3.4179 53.2235H1.51024V48.2297ZM6.67683 55.3262C6.44201 54.988 6.17293 54.7211 5.88197 54.5377C5.65105 54.4012 5.41073 54.3129 5.16659 54.2748C5.37486 54.2595 5.57264 54.1194 5.723 53.8806C5.95889 53.7344 6.15596 53.4552 6.2794 53.0921C6.47458 52.7412 6.63549 52.3422 6.75632 51.9094C6.89938 51.4196 6.95455 50.8723 6.91529 50.3324C6.92124 49.7393 6.83938 49.1528 6.67683 48.624C6.52737 48.1471 6.34026 47.7052 6.12043 47.3098C5.81359 46.8996 5.46316 46.5876 5.08711 46.3899C4.62961 46.1098 4.14408 45.976 3.65636 45.9957H0V63.3425H3.4179C3.95126 63.3267 4.48293 63.2388 5.00762 63.0797C5.44107 62.9822 5.85686 62.7323 6.22704 62.347C6.59722 61.9616 6.9132 61.4497 7.15375 60.8456C7.38853 60.12 7.49849 59.3019 7.47169 58.4801C7.48554 57.8014 7.40391 57.1266 7.23323 56.5089C7.07426 56.1147 6.8358 55.7204 6.67683 55.3262M35.4508 40.6076C35.5303 40.3448 35.5303 40.3448 35.4508 40.2134L33.9406 38.3736L33.0662 40.3448C33.0555 40.3618 33.047 40.3822 33.0412 40.4048C33.0354 40.4274 33.0325 40.4517 33.0325 40.4762C33.0325 40.5007 33.0354 40.525 33.0412 40.5476C33.047 40.5702 33.0555 40.5906 33.0662 40.6076L34.6559 42.4474L35.4508 40.6076ZM69.8683 40.3448C69.8576 40.3618 69.8491 40.3822 69.8433 40.4048C69.8375 40.4274 69.8345 40.4517 69.8345 40.4762C69.8345 40.5007 69.8375 40.525 69.8433 40.5476C69.8491 40.5702 69.8576 40.5906 69.8683 40.6076L71.458 42.4474L72.3323 40.6076C72.4118 40.3448 72.4118 40.3448 72.3323 40.2134L70.7426 38.3736L69.8683 40.3448ZM66.6888 22.2094C66.6781 22.2265 66.6696 22.2469 66.6638 22.2695C66.6581 22.292 66.6551 22.3163 66.6551 22.3408C66.6551 22.3654 66.6581 22.3897 66.6638 22.4122C66.6696 22.4348 66.6781 22.4552 66.6888 22.4723L68.2785 24.3121L69.1529 22.4723C69.2324 22.2094 69.2324 22.2094 69.1529 22.078L67.5632 20.2382L66.6888 22.2094ZM73.6041 35.6138C74.7169 35.2196 75.1143 31.1457 75.1143 29.7001C75.016 27.6253 74.4817 25.6727 73.6041 24.1807L73.5246 23.9178C73.3656 24.9692 73.1272 25.8891 72.9682 26.9404C73.6041 28.386 74.3195 29.963 74.3195 31.6714C74.24 32.8541 72.4913 33.2483 71.0605 33.2483C67.5632 33.2483 67.8811 29.8315 67.9606 28.386C67.9606 28.386 66.2914 33.1169 63.8273 33.1169C60.9658 32.8541 60.0915 29.9629 60.012 27.9917C60.012 21.4209 56.4351 18.7926 53.4146 11.4333L53.3351 11.1705C53.3351 11.1705 52.3813 8.67362 52.2223 8.41079C52.6993 7.6223 64.9401 3.28558 67.0862 2.6285C67.5632 2.49709 67.9606 2.6285 67.6426 4.59974C67.2452 6.70239 65.8939 12.2218 65.2581 14.7187C66.6093 11.4333 69.8683 -0.131225 68.358 0.131606C65.8939 0.9201 53.5736 5.38823 51.8249 6.57097C51.568 7.93012 51.4603 9.35436 51.507 10.7763C54.0505 17.6099 57.7864 22.7351 58.8197 25.6262C59.0581 26.1519 59.1376 26.809 59.0581 26.9404C58.1043 30.62 49.9967 33.5112 47.3737 33.5112C46.8426 33.5268 46.3115 33.4828 45.784 33.3798C49.2019 24.7063 40.8558 7.6223 38.9482 2.6285C38.3918 1.18293 38.1533 0.525853 38.1533 0.525853L37.4379 3.02275C37.7559 5.91389 38.5507 25.3634 38.5507 26.6776V30.2258C38.5507 32.7227 35.6098 32.5913 35.2918 32.5913C34.2585 32.3284 33.7816 28.9116 33.7021 26.5461C30.2842 33.6426 26.3894 33.2483 26.3099 33.2483C22.574 32.5913 22.4151 24.5749 22.3356 19.8439C22.3356 18.267 22.3356 4.73115 22.0971 0.263021C21.6568 1.26834 21.2585 2.32211 20.9048 3.417C20.9048 4.73115 21.2228 17.6099 21.3818 21.2895C21.5104 23.2522 21.3457 25.2371 20.9023 27.0701C20.4588 28.9031 19.7501 30.5282 18.8382 31.8028C19.0299 31.1825 19.1639 30.5179 19.2356 29.8315C19.6331 22.9979 14.5459 16.1643 11.287 8.41079L11.2075 8.14796C11.2075 8.14796 9.77679 4.33691 9.53833 3.67983C9.32341 4.70584 9.16382 5.76128 9.06141 6.8338C13.2742 18.3984 18.7587 24.8377 18.4408 30.62C18.4489 31.0363 18.4035 31.4507 18.3076 31.8358C18.2117 32.2209 18.0674 32.568 17.8844 32.8541C15.9102 35.4388 13.7133 37.5207 11.3665 39.0306H11.7639C13.5921 39.162 16.7716 37.9793 18.2023 36.2709C20.0847 33.9211 21.4297 30.5856 22.0176 26.809V26.809C22.1766 30.4886 22.1766 34.8253 25.4355 36.1395C26.4857 36.5052 27.5717 36.4828 28.616 36.0739C29.6603 35.665 30.6371 34.8796 31.4765 33.774C32.1626 32.9537 32.8013 32.0298 33.3841 31.0143C33.3841 33.1169 33.6226 34.6939 34.2585 35.2196C35.0489 35.8493 35.9422 36.0339 36.802 35.7452C40.2994 34.8253 39.743 28.1231 39.743 24.9692C39.743 21.0267 38.9482 8.41079 38.8687 6.57097C40.6174 11.0391 47.6916 26.1519 44.8301 33.2483C44.0046 33.1347 43.2237 32.5813 42.6045 31.6714C42.2871 31.2683 42.0291 30.7513 41.8501 30.1595C41.6711 29.5676 41.5758 28.9162 41.5712 28.2545C41.665 26.2106 42.1058 24.2519 42.843 22.6037C41.6709 24.5626 40.9174 27.1003 40.6969 29.8315C40.6969 33.1169 41.9686 34.9567 43.6379 35.7452C42.843 37.1908 42.684 37.5851 42.2071 38.3736C42.9829 37.6761 43.7268 36.8855 44.4327 36.0081C44.9312 36.1605 45.4362 36.2484 45.9429 36.2709C52.6993 36.2709 58.4223 32.0656 59.2966 28.6488C59.2171 37.3222 64.4632 35.7452 64.4632 35.7452C65.0852 35.6103 65.6829 35.2596 66.2171 34.7161C66.7513 34.1725 67.21 33.4484 67.5632 32.5913V32.5913C68.517 37.9793 73.6041 35.6138 73.6041 35.6138M2.62304 36.2709C5.16659 36.2709 10.5716 32.0656 12.3998 30.4886C13.0357 29.963 13.0357 28.5174 13.0357 27.7289C13.0866 26.5785 12.9199 25.4304 12.5588 24.4435C11.605 22.3408 9.6973 20.1068 7.07426 15.5072L5.00762 12.0904L4.76916 15.113C6.9683 19.563 9.44618 23.6157 12.1614 27.2032C12.3203 27.3346 12.0819 27.5975 12.0024 27.7289C9.93576 29.3059 4.76916 32.9855 2.8615 32.9855C-0.158972 33.1169 0.953833 26.5461 1.27178 25.4948C1.27178 25.4948 1.35126 25.1006 1.19229 24.9692C0.635889 27.0718 -1.82818 36.4023 2.62304 36.2709M48.0096 26.4147C49.5198 26.5461 51.189 26.4147 51.9839 24.3121C52.2625 23.5306 52.4763 22.6908 52.6198 21.8152C52.1429 21.0267 51.348 20.8953 51.1095 20.3696C51.0301 20.2382 52.0634 19.1869 52.0634 18.924L52.2223 17.6099C52.1429 17.4785 50.1557 19.8439 50.1557 21.6838V21.8152C50.1557 22.6037 51.6659 23.3922 51.6659 23.3922C51.4275 24.1807 48.6455 26.1519 48.0096 26.4147" fill="#7C6E66"/>
<path d="M117.323 0.000240861H84.8931V31.8028C90.6816 26.3563 97.2299 23.5025 103.89 23.5236C111 23.471 117.973 26.7518 124 32.9856V10.7763C123.97 7.88849 123.251 5.13713 122.001 3.11957C120.751 1.10201 119.07 -0.0188876 117.323 0.000240861" fill="#F6B333"/>
<path d="M98.3262 30.0942C93.61 30.0543 88.9728 32.0958 84.8931 36.0079V52.4349C84.9236 55.3227 85.6419 58.074 86.8919 60.0916C88.142 62.1092 89.823 63.2301 91.5699 63.2109H124C122.589 53.7287 119.29 45.3068 114.633 39.3C109.976 33.2933 104.233 30.0508 98.3262 30.0942" fill="#CF202E"/>
</svg>
