<svg width="124" height="64" viewBox="0 0 124 64" fill="none" xmlns="http://www.w3.org/2000/svg">
<path d="M105.813 11.0391L112.935 6.14834V52.4013L105.813 57.7113V11.0391ZM94.9395 63.72H124V0.139648H95.003V63.72H94.9395Z" fill="#400700"/>
<path d="M17.3599 18.585C17.3599 20.8208 17.1055 21.799 16.5332 21.799C15.9609 21.799 15.3886 20.6811 14.8163 18.8645C14.6891 18.585 14.6892 18.3056 14.6892 18.3056V17.8863C14.6892 14.6724 14.8799 12.7161 16.2153 12.7161C16.5968 12.7161 16.9784 12.7161 17.3599 12.8558V18.585ZM22.3835 18.8645C22.3835 21.1003 21.8112 21.6592 21.1753 21.6592C20.3486 21.6592 19.6491 20.6811 19.6491 17.4671V9.22264C18.7589 8.6637 17.1691 8.10475 15.7702 8.10475C13.4174 8.10475 12.3363 10.8995 12.3363 15.6505V18.8645C12.3363 21.1003 11.8912 21.6592 11.3189 21.6592H10.5558C9.98354 21.6592 9.53841 21.1003 9.53841 18.8645V0H7.24919V19.0042C7.24919 23.3361 8.01226 25.4321 9.72918 25.4321H12.082C13.2266 25.4321 13.8625 24.5937 14.244 23.0566C14.244 23.0566 14.3712 23.3361 14.4348 23.4758C15.0707 24.8732 15.8338 25.7116 16.5968 25.7116C17.4871 25.7116 18.2502 25.0129 18.7589 23.7553C19.7763 25.4321 20.4758 25.4321 21.6204 25.4321C23.1465 25.4321 24.6091 24.8732 24.6091 19.0042V9.22264H22.3199V18.8645H22.3835ZM3.24306 19.8427C3.24306 18.585 3.87895 17.8863 4.57844 17.8863C4.70562 17.8863 4.89638 17.8863 4.95997 18.0261L5.53228 13.9737C5.08715 13.834 4.64203 13.6942 4.26049 13.6942C2.79793 13.6942 1.01743 15.3711 1.01743 19.0042C1.01743 20.1221 1.14461 20.8208 1.33538 21.6592H0.508715L0 25.4321H5.27792L5.78664 21.6592H4.45126C3.75177 21.6592 3.24306 20.9606 3.24306 19.8427ZM23.5281 0C22.8286 0 22.3199 1.25763 22.3199 2.655C22.3199 4.19211 22.8922 5.44974 23.5281 5.44974C24.2276 5.44974 24.7999 4.19211 24.7999 2.655C24.7999 1.25763 24.2276 0 23.5281 0ZM55.5135 18.8645C55.5135 20.6811 55.132 21.6592 54.3689 21.6592C53.9238 21.6592 52.8428 18.7248 52.8428 16.3492C52.8428 14.3929 53.2243 12.8558 54.3689 12.8558C54.7505 12.8558 55.132 12.8558 55.5135 12.9955V18.8645ZM57.8028 9.22264C56.9125 8.6637 55.3228 8.10475 53.9238 8.10475C51.571 8.10475 50.49 10.8995 50.49 15.6505C50.49 17.6069 50.9987 19.7029 51.571 21.5195C49.9177 21.5195 47.5649 21.5195 47.5649 21.5195C46.7382 21.5195 46.1023 20.5413 46.1023 18.7248V12.8558L43.8131 14.5327V19.5632C43.8131 22.9169 45.0849 25.4321 46.5474 25.4321H54.3053H54.3689C56.3402 25.4321 57.8028 23.6156 57.8028 19.0042V9.22264V9.22264ZM36.1188 25.4321H38.408V0H36.1188V25.4321ZM54.3053 5.44974C55.0048 5.44974 55.5135 4.19211 55.5135 2.79474C55.5135 1.25763 54.9412 0.139737 54.3053 0.139737C53.6059 0.139737 53.0971 1.39737 53.0971 2.79474C53.0971 4.19211 53.6694 5.44974 54.3053 5.44974ZM85.5913 18.585C85.5913 20.8208 85.337 21.799 84.7647 21.799C84.1924 21.799 83.6201 20.6811 83.0478 18.8645C82.9206 18.585 82.9206 18.3056 82.9206 18.3056V17.8863C82.9206 14.6724 83.1113 12.7161 84.4467 12.7161C84.8283 12.7161 85.2098 12.7161 85.6549 12.8558V18.585H85.5913ZM67.9135 21.6592V17.3274C70.5206 15.7903 72.0468 15.3711 73.1914 15.3711C74.5904 15.3711 75.6078 17.3274 75.7986 21.799H67.9135V21.6592ZM84.0016 8.10475C81.6488 8.10475 80.5678 10.8995 80.5678 15.6505V18.8645C80.5678 21.1003 80.1226 21.6592 79.5503 21.6592H78.0878C77.7698 14.9519 76.5616 10.62 73.5729 10.62C72.1104 10.62 70.0755 11.5982 67.9135 12.9955V10.4803L65.6243 12.0174V21.5195H62.8263V9.22264H60.5371V22.2182C60.5371 27.109 58.8202 28.6461 57.7392 28.6461L58.2479 32.419C60.092 32.419 62.0632 30.4627 62.6356 25.2924H80.3134C81.458 25.2924 82.0939 24.454 82.4754 22.9169C82.4754 22.9169 82.6026 23.1964 82.6662 23.3361C83.3021 24.7335 84.0652 25.5719 84.8282 25.5719C86.6723 25.5719 87.7534 22.9169 87.7534 18.3056V9.22264C86.9903 8.80343 85.4006 8.10475 84.0016 8.10475Z" fill="#400700"/>
<path d="M28.2338 29.904C28.2338 29.345 28.4882 29.0656 28.8697 29.0656C28.9333 29.0656 28.9969 29.0656 29.0605 29.0656L29.3148 27.249C29.0605 27.1093 28.8697 27.1093 28.7425 27.1093C28.1066 27.1093 27.28 27.8079 27.28 29.4848C27.28 29.904 27.3436 30.3232 27.4072 30.6027H27.1528L26.8984 32.2795H29.1877L29.442 30.6027H28.8697C28.4246 30.7424 28.2338 30.4629 28.2338 29.904Z" fill="#400700"/>
<path d="M31.4774 18.8645C31.4774 21.1003 31.0322 21.6592 30.4599 21.6592H29.1881V0H27.4712V21.6592H26.581L26.0723 25.4321H31.2866C33.0035 25.4321 33.8302 23.6156 33.8302 19.0042V0H31.541V18.8645H31.4774Z" fill="#400700"/>
<path d="M57.4223 60.2268C57.0407 60.2268 56.6592 60.0871 56.2777 59.9473V49.4671C56.6592 49.3273 57.1043 49.1876 57.4859 49.1876C58.3761 49.1876 59.3299 49.3273 59.3299 54.6373C59.3935 58.2705 58.4397 60.2268 57.4223 60.2268ZM57.613 45.1352C57.1679 45.1352 56.6592 45.275 56.2777 45.4147V37.8689H54.1792V63.0216C55.3874 63.7202 56.1505 63.9997 57.4859 63.9997C59.7751 63.9997 61.5556 60.646 61.5556 54.6373C61.5556 46.9518 59.9022 45.1352 57.613 45.1352Z" fill="#400700"/>
<path d="M85.1477 53.1002L88.0728 45.6942H85.7835L82.7313 53.6592V37.8689H80.6328V63.7202H82.7313V55.336H83.4307L85.72 63.7202H88.1364L85.1477 53.1002Z" fill="#400700"/>
<path d="M15.9612 45.6941H13.8628V63.5804H15.9612V45.6941Z" fill="#400700"/>
<path d="M14.9425 38.2878C14.3066 38.2878 13.7979 39.4057 13.7979 40.8031C13.7979 42.2005 14.3066 43.3184 14.9425 43.3184C15.5784 43.3184 16.0871 42.2005 16.0871 40.8031C16.0235 39.4057 15.5148 38.2878 14.9425 38.2878Z" fill="#400700"/>
<path d="M21.9396 45.1355C20.5406 45.1355 18.9509 45.6944 17.9971 46.2534V63.7205H20.0955V49.7468C20.6042 49.6071 21.113 49.4673 21.6217 49.4673C23.0206 49.4673 23.275 51.4237 23.275 54.6376V63.7205H25.437V52.821C25.437 47.9302 24.356 45.1355 21.9396 45.1355Z" fill="#400700"/>
<path d="M75.2262 45.1355C73.8273 45.1355 72.2375 45.6944 71.2837 46.2534V63.7205H73.3821V49.7468C73.8909 49.6071 74.3996 49.4673 74.9083 49.4673C76.3073 49.4673 76.5616 51.4237 76.5616 54.6376V63.7205H78.6601V52.821C78.7237 47.9302 77.6426 45.1355 75.2262 45.1355Z" fill="#400700"/>
<path d="M36.4374 45.1355C35.4836 45.1355 34.4025 45.5547 33.5123 46.5329C33.0672 45.8342 32.3041 45.1355 31.2231 45.1355C29.8877 45.1355 28.298 45.6944 27.4077 46.2534V63.7205H29.5062V49.7468C30.0149 49.6071 30.5236 49.4673 30.9687 49.4673C32.3677 49.4673 32.5585 51.4237 32.5585 54.6376V63.7205H34.6569V52.821C34.6569 52.1224 34.6569 51.7031 34.5933 51.1442C34.5933 51.0045 34.5933 51.0045 34.5933 50.8647C34.5933 50.725 34.5933 50.5852 34.5297 50.3058C35.0384 49.7468 35.6743 49.3276 36.1195 49.3276C37.5184 49.3276 37.7092 51.2839 37.7092 54.4979V63.5808H39.8076V52.6813C39.9348 47.9302 38.8538 45.1355 36.4374 45.1355Z" fill="#400700"/>
<path d="M11.8912 60.087C11.3824 60.087 10.9373 59.528 10.9373 57.5717V38.0085H8.83887V57.8512C8.83887 63.1612 10.1742 63.8599 11.1917 63.8599H12.5271V60.087H11.8912Z" fill="#400700"/>
<path d="M4.70528 59.8079C4.38733 60.5066 3.81503 60.786 3.43349 60.786C2.73401 60.786 2.28888 59.9476 2.28888 58.131C2.28888 55.8952 3.49708 55.476 4.70528 55.3363V59.8079ZM3.75144 45.1355C2.86118 45.1355 1.52581 45.6944 0.635555 46.2534L1.08068 49.7468C1.90734 49.3276 2.73401 48.9084 3.24272 48.9084C4.26015 48.9084 4.70528 49.6071 4.70528 52.2621V52.4018C1.97093 52.6813 0.19043 54.2184 0.19043 58.5503C0.19043 61.7642 1.20786 64 2.98836 64C3.68785 64 4.38733 63.7205 5.02322 62.8821C5.08681 63.3013 5.08681 63.441 5.1504 63.7205H6.74014C6.74014 62.6026 6.74014 61.2053 6.74014 59.9476V51.5634C6.80373 45.8342 5.21399 45.1355 3.75144 45.1355Z" fill="#400700"/>
<path d="M45.8476 59.8079C45.5297 60.5066 44.9574 60.786 44.5758 60.786C43.8764 60.786 43.4312 59.9476 43.4312 58.131C43.4312 55.8952 44.6394 55.476 45.8476 55.3363V59.8079ZM44.9574 45.1355C44.0671 45.1355 42.7318 45.6944 41.8415 46.2534L42.2866 49.7468C43.1133 49.3276 43.94 48.9084 44.4487 48.9084C45.4661 48.9084 45.9112 49.6071 45.9112 52.2621V52.4018C43.1769 52.6813 41.46 54.2184 41.46 58.5503C41.46 61.7642 42.4774 64 44.2579 64C44.9574 64 45.6569 63.7205 46.2928 62.8821C46.3563 63.1616 46.3563 63.3013 46.4199 63.7205H48.0097C48.0097 62.6026 48.0097 61.2053 48.0097 59.9476V51.5634C47.9461 45.8342 46.3563 45.1355 44.9574 45.1355Z" fill="#400700"/>
<path d="M67.2774 59.8079C66.9595 60.5066 66.3872 60.786 66.0056 60.786C65.3062 60.786 64.861 59.9476 64.861 58.131C64.861 55.8952 66.0692 55.476 67.2774 55.3363V59.8079ZM66.3872 45.1355C65.4969 45.1355 64.1615 45.6944 63.2713 46.2534L63.7164 49.7468C64.5431 49.3276 65.3697 48.9084 65.8785 48.9084C66.8959 48.9084 67.341 49.6071 67.341 52.2621V52.4018C64.6067 52.6813 62.8262 54.2184 62.8262 58.5503C62.8262 61.7642 63.8436 64 65.6241 64C66.3236 64 67.0231 63.7205 67.659 62.8821C67.7226 63.1616 67.7226 63.3013 67.7861 63.7205H69.3759C69.3759 62.6026 69.3759 61.2053 69.3759 59.9476V51.5634C69.3759 45.8342 67.7861 45.1355 66.3872 45.1355Z" fill="#400700"/>
</svg>
