<svg width="60" height="60" viewBox="0 0 60 60" fill="none" xmlns="http://www.w3.org/2000/svg">
<path fill-rule="evenodd" clip-rule="evenodd" d="M15.1746 29.5496C14.6952 29.6794 14.2869 29.9942 14.0393 30.4248L4.0015 47.8125C3.81609 48.1334 3.72994 48.5021 3.75393 48.8719C3.77792 49.2418 3.91098 49.5963 4.13629 49.8905C4.36161 50.1848 4.66908 50.4057 5.01987 50.5254C5.37066 50.645 5.74904 50.658 6.10722 50.5627L11.9812 48.988L13.5523 54.8584C13.6481 55.2167 13.848 55.5385 14.1267 55.7832C14.4054 56.0279 14.7504 56.1845 15.1181 56.2331C15.4858 56.2817 15.8596 56.2202 16.1924 56.0563C16.5251 55.8925 16.8017 55.6336 16.9873 55.3125L26.1902 39.375C26.4385 38.9446 26.5059 38.4333 26.3775 37.9534C26.2491 37.4734 25.9354 37.0641 25.5054 36.8152C25.0751 36.5669 24.5638 36.4995 24.0838 36.6279C23.6039 36.7563 23.1945 37.07 22.9456 37.5L16.0059 49.519L15.1197 46.2085C15.0563 45.9704 14.9466 45.7471 14.7969 45.5514C14.6472 45.3557 14.4603 45.1914 14.2471 45.0679C14.0339 44.9445 13.7984 44.8643 13.5541 44.8319C13.3098 44.7995 13.0616 44.8155 12.8235 44.8791L9.50932 45.7654L17.284 32.2998C17.5323 31.8694 17.5996 31.3581 17.4712 30.8782C17.3428 30.3982 17.0292 29.9889 16.5992 29.74C16.3859 29.6161 16.1503 29.5355 15.9058 29.5029C15.6614 29.4702 15.4129 29.4861 15.1746 29.5496Z" fill="white"/>
<path fill-rule="evenodd" clip-rule="evenodd" d="M43.3967 29.7395C42.9667 29.9883 42.653 30.3977 42.5246 30.8777C42.3962 31.3576 42.4636 31.8689 42.7119 32.2993L50.4865 45.7649L47.1723 44.8786C46.9343 44.815 46.686 44.799 46.4417 44.8314C46.1975 44.8638 45.962 44.944 45.7487 45.0674C45.5355 45.1909 45.3487 45.3552 45.199 45.5509C45.0492 45.7466 44.9396 45.9699 44.8762 46.208L43.9899 49.5185L37.0503 37.4995C36.8014 37.0695 36.392 36.7558 35.912 36.6274C35.4321 36.499 34.9208 36.5664 34.4904 36.8147C34.0604 37.0636 33.7468 37.4729 33.6184 37.9529C33.49 38.4328 33.5573 38.9441 33.8056 39.3745L43.0085 55.312C43.1941 55.6331 43.4708 55.8919 43.8035 56.0558C44.1362 56.2197 44.5101 56.2812 44.8777 56.2326C45.2454 56.184 45.5905 56.0274 45.8692 55.7827C46.1479 55.538 46.3478 55.2162 46.4436 54.8579L48.0146 48.9875L53.8886 50.5622C54.2468 50.6575 54.6252 50.6445 54.976 50.5249C55.3268 50.4052 55.6342 50.1843 55.8596 49.89C56.0849 49.5957 56.2179 49.2413 56.2419 48.8714C56.2659 48.5016 56.1798 48.1329 55.9943 47.812L45.9565 30.4243C45.7076 29.9943 45.2982 29.6806 44.8183 29.5522C44.3383 29.4238 43.827 29.4912 43.3967 29.7395Z" fill="white"/>
<path fill-rule="evenodd" clip-rule="evenodd" d="M30 3.75C19.6669 3.75 11.25 12.1669 11.25 22.5C11.25 32.8331 19.6669 41.25 30 41.25C40.3331 41.25 48.75 32.8331 48.75 22.5C48.75 12.1669 40.3331 3.75 30 3.75ZM30 7.5C38.3065 7.5 45 14.1935 45 22.5C45 30.8065 38.3065 37.5 30 37.5C21.6935 37.5 15 30.8065 15 22.5C15 14.1935 21.6935 7.5 30 7.5Z" fill="white"/>
<path fill-rule="evenodd" clip-rule="evenodd" d="M24.0266 32.747C24.4847 32.8664 24.9711 32.8087 25.3884 32.5856L29.9958 30.119L34.6032 32.5856C34.9143 32.7525 35.2664 32.8283 35.6189 32.8046C35.9713 32.7808 36.3099 32.6584 36.5958 32.4513C36.8816 32.2442 37.103 31.9609 37.2347 31.634C37.3663 31.307 37.4028 30.9497 37.3399 30.603L36.4112 25.4693L40.1863 21.8604C40.4414 21.6169 40.6225 21.3066 40.7087 20.965C40.795 20.6235 40.783 20.2647 40.674 19.9297C40.565 19.5947 40.3635 19.2971 40.0927 19.0712C39.8218 18.8452 39.4926 18.7 39.1427 18.6522L33.9614 17.9471L31.6864 13.2506C31.5328 12.9336 31.2927 12.6662 30.9937 12.4791C30.6946 12.292 30.3488 12.1928 29.9958 12.1928C29.6428 12.1928 29.297 12.292 28.9979 12.4791C28.6989 12.6662 28.4588 12.9336 28.3052 13.2506L26.0302 17.9471L20.8489 18.6522C20.499 18.7 20.1698 18.8452 19.8989 19.0712C19.6281 19.2971 19.4266 19.5947 19.3176 19.9297C19.2087 20.2647 19.1966 20.6235 19.2829 20.965C19.3691 21.3066 19.5502 21.6169 19.8053 21.8604L23.5804 25.4693L22.6517 30.603C22.5679 31.0673 22.6629 31.5462 22.9178 31.9437C23.1727 32.3412 23.5687 32.6281 24.0266 32.747ZM32.9543 27.452L30.8828 26.3436C30.61 26.1977 30.3053 26.1214 29.9958 26.1214C29.6863 26.1214 29.3816 26.1977 29.1088 26.3436L27.0373 27.452L27.4547 25.1441C27.5096 24.8402 27.4884 24.5274 27.3928 24.2337C27.2972 23.94 27.1302 23.6744 26.9068 23.4606L25.211 21.8396L27.5382 21.5222C27.8449 21.4801 28.1363 21.363 28.3867 21.1814C28.637 20.9999 28.8385 20.7594 28.9731 20.4814L29.9958 18.3686L31.0185 20.4814C31.1531 20.7594 31.3546 20.9999 31.6049 21.1814C31.8553 21.363 32.1468 21.4801 32.4534 21.5222L34.7806 21.8396L33.0848 23.4606C32.8614 23.6744 32.6944 23.94 32.5988 24.2337C32.5032 24.5274 32.482 24.8402 32.5369 25.1441L32.9543 27.452Z" fill="white"/>
</svg>
