<svg width="156" height="128" viewBox="0 0 156 128" fill="none" xmlns="http://www.w3.org/2000/svg">
<path d="M0 0H156V128H0V0Z" fill="white"/>
<g clip-path="url(#clip0_3311_3154)">
<path d="M47.6578 99.1826V94.4785C47.6578 92.6752 46.5318 91.4992 44.6014 91.4992C43.6362 91.4992 42.5905 91.8128 41.8666 92.832C41.3036 91.9696 40.4993 91.4992 39.2928 91.4992C38.4885 91.4992 37.6841 91.7344 37.0407 92.5968V91.656H35.3516V99.1826H37.0407V95.0273C37.0407 93.6945 37.7646 93.0673 38.8906 93.0673C40.0167 93.0673 40.5797 93.7729 40.5797 95.0273V99.1826H42.2688V95.0273C42.2688 93.6945 43.0731 93.0673 44.1188 93.0673C45.2448 93.0673 45.8079 93.7729 45.8079 95.0273V99.1826H47.6578ZM72.6725 91.656H69.9378V89.3824H68.2487V91.656H66.7205V93.1457H68.2487V96.5953C68.2487 98.3202 68.9726 99.3394 70.903 99.3394C71.6269 99.3394 72.4312 99.1042 72.9942 98.7906L72.5116 97.3793C72.029 97.693 71.466 97.7714 71.0638 97.7714C70.2595 97.7714 69.9378 97.3009 69.9378 96.5169V93.1457H72.6725V91.656ZM86.9896 91.4992C86.0244 91.4992 85.3809 91.9696 84.9788 92.5968V91.656H83.2897V99.1826H84.9788V94.9489C84.9788 93.6945 85.5418 92.9888 86.5874 92.9888C86.9092 92.9888 87.3113 93.0673 87.6331 93.1457L88.1157 91.5776C87.7939 91.4992 87.3113 91.4992 86.9896 91.4992ZM65.3531 92.2832C64.5488 91.7344 63.4227 91.4992 62.2162 91.4992C60.2858 91.4992 58.9989 92.44 58.9989 93.9297C58.9989 95.1841 59.9641 95.8897 61.6532 96.1249L62.4575 96.2033C63.3423 96.3601 63.8249 96.5953 63.8249 96.9873C63.8249 97.5361 63.1814 97.9282 62.0553 97.9282C60.9293 97.9282 60.0445 97.5361 59.4815 97.1441L58.6772 98.3986C59.5619 99.0258 60.7684 99.3394 61.9749 99.3394C64.227 99.3394 65.514 98.3202 65.514 96.9089C65.514 95.5761 64.4683 94.8705 62.8597 94.6353L62.0553 94.5569C61.3314 94.4785 60.7684 94.3217 60.7684 93.8513C60.7684 93.3025 61.3314 92.9888 62.2162 92.9888C63.1814 92.9888 64.1466 93.3809 64.6292 93.6161L65.3531 92.2832ZM110.235 91.4992C109.27 91.4992 108.626 91.9696 108.224 92.5968V91.656H106.535V99.1826H108.224V94.9489C108.224 93.6945 108.787 92.9888 109.833 92.9888C110.154 92.9888 110.556 93.0673 110.878 93.1457L111.361 91.5776C111.039 91.4992 110.556 91.4992 110.235 91.4992ZM88.6787 95.4193C88.6787 97.693 90.2874 99.3394 92.7808 99.3394C93.9068 99.3394 94.7112 99.1042 95.5155 98.477L94.7112 97.1441C94.0677 97.6145 93.4242 97.8498 92.7003 97.8498C91.333 97.8498 90.3678 96.9089 90.3678 95.4193C90.3678 94.0081 91.333 93.0672 92.7003 92.9888C93.4242 92.9888 94.0677 93.2241 94.7112 93.6945L95.5155 92.3616C94.7112 91.7344 93.9068 91.4992 92.7808 91.4992C90.2874 91.4992 88.6787 93.1457 88.6787 95.4193ZM104.283 95.4193V91.656H102.594V92.5968C102.031 91.8912 101.226 91.4992 100.181 91.4992C98.0089 91.4992 96.3198 93.1457 96.3198 95.4193C96.3198 97.693 98.0089 99.3394 100.181 99.3394C101.307 99.3394 102.111 98.9474 102.594 98.2418V99.1826H104.283V95.4193ZM98.0894 95.4193C98.0894 94.0865 98.9741 92.9888 100.422 92.9888C101.789 92.9888 102.754 94.0081 102.754 95.4193C102.754 96.7521 101.789 97.8498 100.422 97.8498C98.9741 97.7714 98.0894 96.7521 98.0894 95.4193ZM77.9007 91.4992C75.6485 91.4992 74.0399 93.0673 74.0399 95.4193C74.0399 97.7714 75.6485 99.3394 77.9811 99.3394C79.1072 99.3394 80.2332 99.0258 81.118 98.3202L80.3137 97.1441C79.6702 97.6145 78.8659 97.9282 78.0615 97.9282C77.0159 97.9282 75.9703 97.4577 75.729 96.1249H81.4397V95.4977C81.5201 93.0673 80.0724 91.4992 77.9007 91.4992ZM77.9007 92.9104C78.9463 92.9104 79.6702 93.5377 79.8311 94.7137H75.8094C75.9703 93.6945 76.6942 92.9104 77.9007 92.9104ZM119.806 95.4193V88.6768H118.117V92.5968C117.554 91.8912 116.75 91.4992 115.704 91.4992C113.533 91.4992 111.843 93.1457 111.843 95.4193C111.843 97.693 113.533 99.3394 115.704 99.3394C116.83 99.3394 117.635 98.9474 118.117 98.2418V99.1826H119.806V95.4193ZM113.613 95.4193C113.613 94.0865 114.498 92.9888 115.946 92.9888C117.313 92.9888 118.278 94.0081 118.278 95.4193C118.278 96.7521 117.313 97.8498 115.946 97.8498C114.498 97.7714 113.613 96.7521 113.613 95.4193ZM57.1489 95.4193V91.656H55.4598V92.5968C54.8968 91.8912 54.0925 91.4992 53.0468 91.4992C50.8751 91.4992 49.1861 93.1457 49.1861 95.4193C49.1861 97.693 50.8751 99.3394 53.0468 99.3394C54.1729 99.3394 54.9772 98.9474 55.4598 98.2418V99.1826H57.1489V95.4193ZM50.8751 95.4193C50.8751 94.0865 51.7599 92.9888 53.2077 92.9888C54.5751 92.9888 55.5403 94.0081 55.5403 95.4193C55.5403 96.7521 54.5751 97.8498 53.2077 97.8498C51.7599 97.7714 50.8751 96.7521 50.8751 95.4193Z" fill="black"/>
<path d="M90.1274 34.5012H64.791V78.8766H90.1274V34.5012Z" fill="#FF5F00"/>
<path d="M66.4001 56.689C66.4001 47.6728 70.7435 39.6758 77.4195 34.5013C72.5131 30.738 66.3197 28.4644 59.5633 28.4644C43.5571 28.4644 30.6074 41.087 30.6074 56.689C30.6074 72.2909 43.5571 84.9136 59.5633 84.9136C66.3197 84.9136 72.5131 82.6399 77.4195 78.8766C70.7435 73.7805 66.4001 65.7052 66.4001 56.689Z" fill="#EB001B"/>
<path d="M124.312 56.689C124.312 72.2909 111.362 84.9136 95.3561 84.9136C88.5998 84.9136 82.4064 82.6399 77.5 78.8766C84.2564 73.7021 88.5193 65.7052 88.5193 56.689C88.5193 47.6728 84.1759 39.6758 77.5 34.5013C82.4064 30.738 88.5998 28.4644 95.3561 28.4644C111.362 28.4644 124.312 41.1654 124.312 56.689Z" fill="#F79E1B"/>
</g>
<defs>
<clipPath id="clip0_3311_3154">
<rect width="93.7975" height="91.4286" fill="white" transform="translate(30.6074 18.2858)"/>
</clipPath>
</defs>
</svg>
