<svg width="156" height="128" viewBox="0 0 156 128" fill="none" xmlns="http://www.w3.org/2000/svg">
<path d="M0 0H156V128H0V0Z" fill="white"/>
<path d="M41.4688 31.9097C41.4688 29.7005 43.2596 27.9097 45.4688 27.9097H110.351C112.56 27.9097 114.351 29.7005 114.351 31.9097V65.1621C114.351 65.9406 114.124 66.7023 113.697 67.3536L112.266 69.5389C111.35 70.9365 111.4 72.7557 112.39 74.1013L113.572 75.7078C114.078 76.3949 114.351 77.2256 114.351 78.0786V95.1279C114.351 97.337 112.56 99.1279 110.351 99.1279H45.4687C43.2596 99.1279 41.4688 97.337 41.4688 95.1279V63.8855C41.4688 63.2412 41.7053 62.6195 42.1336 62.1382L42.1869 62.0783C43.058 61.0995 43.0416 59.6188 42.1491 58.6595V58.6595C41.7118 58.1895 41.4688 57.5713 41.4688 56.9293V31.9097Z" fill="#016FD0"/>
<path d="M55.6172 77.5362V66.355H67.7326L69.0324 68.0108L70.3753 66.355H114.351V76.7651C114.351 76.7651 113.201 77.525 111.871 77.5362H87.5207L86.0552 75.7736V77.5362H81.2527V74.5274C81.2527 74.5274 80.5967 74.9474 79.1784 74.9474H77.5438V77.5362H70.2725L68.9745 75.8448L67.6566 77.5362H55.6172Z" fill="white"/>
<path d="M41.4688 57.9282L44.2008 51.7042H48.9257L50.4761 55.1907V51.7042H56.3495L57.2725 54.2241L58.1674 51.7042H84.5328V52.9711C84.5328 52.9711 85.9189 51.7042 88.1967 51.7042L96.7513 51.7334L98.275 55.1742V51.7042H103.19L104.543 53.6807V51.7042H109.503V62.8854H104.543L103.247 60.9025V62.8854H96.0251L95.2989 61.1229H93.3575L92.6431 62.8854H87.7457C85.7858 62.8854 84.5328 61.6445 84.5328 61.6445V62.8854H77.1488L75.6833 61.1229V62.8854H48.2257L47.5 61.1229H45.5648L44.8442 62.8854H41.4688V57.9282Z" fill="white"/>
<path d="M45.1693 53.0825L41.4844 61.4547H43.8835L44.5634 59.7782H48.5161L49.1925 61.4547H51.6445L47.963 53.0825H45.1693ZM46.5327 55.031L47.7375 57.9605H45.3244L46.5327 55.031V55.031Z" fill="#016FD0"/>
<path d="M51.8965 61.4532V53.0811L55.3057 53.0934L57.2887 58.4912L59.2241 53.0811H62.6061V61.4532H60.4642V55.2842L58.1937 61.4532H56.3152L54.0384 55.2842V61.4532H51.8965Z" fill="#016FD0"/>
<path d="M64.0703 61.4532V53.0811H71.0598V54.9538H66.2348V56.3858H70.947V58.1484H66.2348V59.6356H71.0598V61.4532H64.0703Z" fill="#016FD0"/>
<path d="M72.3008 53.0825V61.4547H74.4427V58.4803H75.3446L77.9128 61.4547H80.5303L77.712 58.3702C78.8686 58.2748 80.0618 57.3047 80.0618 55.7987C80.0618 54.0369 78.6466 53.0825 77.0673 53.0825H72.3008V53.0825ZM74.4427 54.9552H76.8911C77.4785 54.9552 77.9057 55.4042 77.9057 55.8365C77.9057 56.3927 77.3522 56.7178 76.9228 56.7178H74.4427V54.9552V54.9552Z" fill="#016FD0"/>
<path d="M83.1245 61.4532H80.9375V53.0811H83.1245V61.4532Z" fill="#016FD0"/>
<path d="M88.309 61.4532H87.8369C85.5528 61.4532 84.166 59.6948 84.166 57.3015C84.166 54.8492 85.5373 53.0811 88.4217 53.0811H90.7891V55.0639H88.3351C87.1642 55.0639 86.3361 55.9568 86.3361 57.3222C86.3361 58.9436 87.283 59.6245 88.6472 59.6245H89.2108L88.309 61.4532Z" fill="#016FD0"/>
<path d="M92.9701 53.0825L89.2852 61.4547H91.6843L92.3642 59.7782H96.3169L96.9933 61.4547H99.4452L95.7638 53.0825H92.9701ZM94.3335 55.031L95.5383 57.9605H93.1251L94.3335 55.031Z" fill="#016FD0"/>
<path d="M99.6953 61.4532V53.0811H102.419L105.896 58.3412V53.0811H108.038V61.4532H105.402L101.837 56.0554V61.4532H99.6953Z" fill="#016FD0"/>
<path d="M57.082 76.1043V67.7322H64.0715V69.6049H59.2465V71.037H63.9588V72.7995H59.2465V74.2867H64.0715V76.1043H57.082Z" fill="#016FD0"/>
<path d="M91.3301 76.1043V67.7322H98.3195V69.6049H93.4946V71.037H98.1843V72.7995H93.4946V74.2867H98.3195V76.1043H91.3301Z" fill="#016FD0"/>
<path d="M64.3427 76.1043L67.7459 71.9699L64.2617 67.7322H66.9603L69.0353 70.3519L71.1173 67.7322H73.7102L70.2718 71.9182L73.6812 76.1043H70.9831L68.9683 73.5259L67.0025 76.1043H64.3427Z" fill="#016FD0"/>
<path d="M73.9355 67.7335V76.1057H76.1338V73.4618H78.3885C80.2963 73.4618 81.7423 72.4728 81.7423 70.5495C81.7423 68.9562 80.6082 67.7335 78.6668 67.7335H73.9355V67.7335ZM76.1338 69.6269H78.5083C79.1246 69.6269 79.5652 69.996 79.5652 70.5908C79.5652 71.1495 79.1268 71.5547 78.5012 71.5547H76.1338V69.6269Z" fill="#016FD0"/>
<path d="M82.6719 67.7322V76.1043H84.8138V73.13H85.7157L88.2839 76.1043H90.9014L88.0831 73.0198C89.2397 72.9245 90.4329 71.9544 90.4329 70.4483C90.4329 68.6865 89.0177 67.7322 87.4384 67.7322H82.6719V67.7322ZM84.8138 69.6049H87.2622C87.8496 69.6049 88.2768 70.0538 88.2768 70.4862C88.2768 71.0424 87.7232 71.3674 87.2939 71.3674H84.8138V69.6049V69.6049Z" fill="#016FD0"/>
<path d="M99.311 76.1043V74.2867H103.598C104.232 74.2867 104.507 73.9517 104.507 73.5844C104.507 73.2325 104.233 72.8766 103.598 72.8766H101.661C99.9768 72.8766 99.0391 71.8742 99.0391 70.3691C99.0391 69.0267 99.8978 67.7322 102.4 67.7322H106.571L105.669 69.6159H102.062C101.372 69.6159 101.16 69.9695 101.16 70.3072C101.16 70.6542 101.422 71.037 101.949 71.037H103.978C105.855 71.037 106.67 72.0774 106.67 73.4398C106.67 74.9046 105.762 76.1043 103.876 76.1043H99.311Z" fill="#016FD0"/>
<path d="M107.174 76.1043V74.2867H111.461C112.095 74.2867 112.37 73.9517 112.37 73.5844C112.37 73.2325 112.096 72.8766 111.461 72.8766H109.524C107.84 72.8766 106.902 71.8742 106.902 70.3691C106.902 69.0267 107.761 67.7322 110.263 67.7322H114.434L113.532 69.6159H109.925C109.235 69.6159 109.023 69.9695 109.023 70.3072C109.023 70.6542 109.285 71.037 109.812 71.037H111.841C113.718 71.037 114.533 72.0774 114.533 73.4398C114.533 74.9046 113.625 76.1043 111.739 76.1043H107.174Z" fill="#016FD0"/>
</svg>
