<svg width="156" height="128" viewBox="0 0 156 128" fill="none" xmlns="http://www.w3.org/2000/svg">
<rect width="156" height="128" fill="white"/>
<path d="M37.2139 61.7384C36.1556 55.7636 30.8417 51.4006 24.6239 51.4006C19.9715 51.4006 16.2011 55.0758 16.2011 59.6107C16.2011 60.3414 16.2893 61.0507 16.4877 61.7599C17.7004 57.3755 22.3087 54.7749 26.8067 55.9355C31.3048 57.0961 33.9727 61.6095 32.7821 65.9939C31.7899 69.5831 28.4604 72.0762 24.6459 72.0977C17.5902 72.0977 11.8795 66.5097 11.8574 59.6322V63.8662C11.8574 70.7437 17.5682 76.3317 24.6239 76.3317C29.4967 76.3317 33.9286 73.6452 36.0894 69.3897C37.2801 67.004 37.677 64.339 37.2139 61.7384Z" fill="#5940C3"/>
<path d="M36.728 55.6346C34.479 49.1224 27.2248 45.6192 20.5439 47.8114C13.863 50.0036 10.269 57.0746 12.518 63.5867C14.2599 68.6589 19.1328 72.0547 24.623 72.0547C29.2754 72.0547 33.0458 68.358 33.0458 63.8231C33.0458 63.1139 32.9576 62.4047 32.7591 61.7169C31.5464 66.1013 26.9382 68.7019 22.4401 67.5413C17.9421 66.3592 15.2742 61.8674 16.4648 57.4829C17.457 53.8937 20.7865 51.3791 24.623 51.3791C30.8409 51.3791 36.1547 55.742 37.2131 61.7169C37.3454 62.4261 37.4115 63.1139 37.4115 63.8446V59.6107C37.3895 58.2566 37.169 56.9026 36.728 55.6346Z" fill="#968BFF"/>
<path d="M80.7601 75.3214C81.0688 75.5148 81.2672 75.8802 81.2452 76.2456C81.2452 76.5035 81.157 76.7399 81.0026 76.9548C80.8262 77.1483 80.6057 77.2987 80.3411 77.3632C80.9806 77.4706 81.4436 78.008 81.4215 78.6527C81.4436 79.0611 81.2452 79.4479 80.8924 79.6844C80.4734 79.9638 79.9663 80.0927 79.4812 80.0712H77.0117V74.999H79.393C79.9002 74.9561 80.3632 75.085 80.7601 75.3214ZM79.8781 76.8689C80.0104 76.7614 80.0765 76.611 80.0765 76.4605C80.0986 76.3101 80.0104 76.1596 79.8781 76.0522C79.7238 75.9447 79.5474 75.9017 79.3489 75.9232H78.2024V77.0408H79.3489C79.5474 77.0408 79.7458 76.9978 79.8781 76.8689ZM80.0104 78.9536C80.1647 78.8462 80.2529 78.6742 80.2529 78.5023C80.2529 78.3303 80.1647 78.1584 80.0104 78.0724C79.812 77.965 79.5915 77.9005 79.3489 77.922H78.2024V79.1256H79.3489C79.5915 79.1256 79.812 79.0826 80.0104 78.9536Z" fill="#5940C3"/>
<path d="M85.2798 76.6539C85.6326 77.0838 85.809 77.6211 85.7869 78.1584C85.7869 78.2658 85.7869 78.3733 85.7869 78.4163H82.9206C83.0308 78.8891 83.4718 79.2115 83.9569 79.19C84.3317 79.19 84.7065 79.0395 84.9711 78.7816L85.5665 79.3619C85.368 79.5769 85.1034 79.7488 84.8168 79.8777C84.5081 80.0067 84.1774 80.0497 83.8466 80.0497C83.4718 80.0497 83.0749 79.9637 82.7442 79.7918C82.4355 79.6413 82.1929 79.3834 82.0165 79.104C81.6638 78.4593 81.6638 77.6855 82.0165 77.0193C82.1929 76.7184 82.4355 76.482 82.7442 76.31C83.0749 76.1381 83.4497 76.0521 83.8025 76.0521C84.3758 76.0736 84.905 76.267 85.2798 76.6539ZM84.7065 77.793C84.7065 77.5566 84.6183 77.3417 84.464 77.1697C84.2876 77.0193 84.0671 76.9333 83.8466 76.9333C83.6261 76.9333 83.3836 76.9978 83.2292 77.1482C83.0529 77.3202 82.9426 77.5351 82.9206 77.7715H84.7065V77.793Z" fill="#5940C3"/>
<path d="M91.3437 76.3748C91.6303 76.5467 91.8508 76.7831 92.0051 77.0625C92.1595 77.3849 92.2477 77.7503 92.2477 78.1156C92.2477 78.481 92.1815 78.8249 92.0272 79.1473C91.8949 79.4267 91.6523 79.6846 91.3878 79.835C91.1011 80.007 90.7483 80.0929 90.4176 80.0714C90.153 80.0714 89.9105 80.0285 89.69 79.921C89.4695 79.8135 89.2931 79.6631 89.1387 79.4697V80.0285H87.9922V74.6984H89.1387V76.7401C89.271 76.5467 89.4474 76.3963 89.6679 76.2888C89.8884 76.1813 90.153 76.1384 90.3955 76.1384C90.7042 76.1169 91.057 76.2028 91.3437 76.3748ZM90.8145 78.8679C91.1893 78.4165 91.1893 77.7718 90.8145 77.3204C90.6381 77.127 90.3735 77.0195 90.1089 77.0195C89.8443 77.0195 89.5797 77.127 89.3813 77.3204C89.0064 77.7718 89.0064 78.4165 89.3813 78.8679C89.5577 79.0613 89.8223 79.1688 90.1089 79.1688C90.3735 79.1688 90.616 79.0613 90.8145 78.8679Z" fill="#5940C3"/>
<path d="M95.732 76.3747C96.0407 76.5252 96.3053 76.7616 96.4817 77.0625C96.8345 77.7072 96.8345 78.481 96.4817 79.1472C96.3053 79.4481 96.0407 79.6845 95.732 79.8565C95.3792 80.0284 95.0044 80.1144 94.6075 80.1144C94.2106 80.1144 93.8358 80.0284 93.483 79.8565C93.1743 79.706 92.9097 79.4481 92.7333 79.1472C92.3806 78.5025 92.3806 77.7287 92.7333 77.0625C92.9097 76.7616 93.1743 76.5252 93.483 76.3747C93.8358 76.2028 94.2106 76.1168 94.6075 76.1168C95.0044 76.1168 95.3792 76.2028 95.732 76.3747ZM93.9019 77.3419C93.5271 77.7932 93.5271 78.438 93.9019 78.8893C94.0783 79.0828 94.3429 79.1902 94.6296 79.1902C94.8942 79.1902 95.1587 79.0828 95.3351 78.8893C95.71 78.438 95.71 77.7932 95.3351 77.3419C95.1587 77.1485 94.8942 77.041 94.6296 77.041C94.3429 77.041 94.0783 77.1485 93.9019 77.3419Z" fill="#5940C3"/>
<path d="M97.2969 74.6768H98.4434V80.0283H97.2969V74.6768Z" fill="#5940C3"/>
<path d="M103.273 74.6767V80.0282H102.126V79.4479C101.994 79.6414 101.818 79.7918 101.597 79.8993C101.377 80.0067 101.112 80.0497 100.87 80.0497C100.517 80.0497 100.186 79.9638 99.8774 79.7918C99.5907 79.6199 99.3702 79.3835 99.2159 79.0826C98.9072 78.4163 98.9072 77.6641 99.2159 76.9978C99.3702 76.7184 99.5907 76.4605 99.8774 76.3101C100.164 76.1381 100.517 76.0522 100.848 76.0737C101.355 76.0522 101.84 76.2886 102.126 76.6754V74.6337H103.273V74.6767ZM101.862 78.8891C102.237 78.4378 102.237 77.793 101.862 77.3417C101.685 77.1483 101.421 77.0408 101.156 77.0408C100.892 77.0408 100.627 77.1483 100.429 77.3417C100.054 77.793 100.054 78.4378 100.429 78.8891C100.605 79.0826 100.87 79.19 101.156 79.19C101.421 79.2115 101.663 79.1041 101.862 78.8891Z" fill="#5940C3"/>
<path d="M104.904 79.1256C105.014 79.2331 105.08 79.3835 105.058 79.534C105.058 79.6844 105.014 79.8349 104.904 79.9423C104.684 80.1573 104.309 80.1573 104.088 79.9423C103.978 79.8349 103.912 79.6844 103.934 79.534C103.934 79.3835 103.978 79.2331 104.088 79.1256C104.199 79.0182 104.353 78.9752 104.485 78.9752C104.639 78.9537 104.794 79.0182 104.904 79.1256Z" fill="#5940C3"/>
<path d="M111.057 75.3217C111.388 75.5151 111.564 75.8804 111.564 76.2458C111.564 76.5037 111.476 76.7401 111.322 76.9551C111.145 77.1485 110.925 77.2989 110.66 77.3634C110.969 77.4279 111.255 77.5783 111.454 77.8148C111.652 78.0512 111.763 78.3521 111.74 78.653C111.763 79.0613 111.564 79.4482 111.211 79.6846C110.792 79.964 110.285 80.0929 109.8 80.0714H107.309V74.9993H109.69C110.175 74.9778 110.638 75.0852 111.057 75.3217ZM110.153 76.8691C110.285 76.7616 110.351 76.6112 110.351 76.4607C110.373 76.3103 110.285 76.1599 110.153 76.0524C109.999 75.9449 109.822 75.9019 109.624 75.9234H108.477V77.041H109.624C109.822 77.041 110.021 76.9766 110.153 76.8691ZM110.285 78.9538C110.44 78.8464 110.528 78.6744 110.528 78.5025C110.528 78.3306 110.44 78.1586 110.285 78.0727C110.087 77.9652 109.866 77.9007 109.624 77.9222H108.477V79.1258H109.624C109.866 79.1258 110.087 79.0613 110.285 78.9538Z" fill="#5940C3"/>
<path d="M115.553 76.654C115.906 77.0839 116.082 77.6212 116.06 78.1585C116.06 78.2659 116.06 78.3734 116.06 78.4164H113.194C113.238 78.6528 113.37 78.8462 113.569 78.9967C113.767 79.1256 113.988 79.2116 114.23 79.2116C114.407 79.2116 114.605 79.1686 114.782 79.1041C114.958 79.0397 115.112 78.9322 115.245 78.8032L115.84 79.3835C115.641 79.5985 115.377 79.7704 115.112 79.8994C114.804 80.0283 114.473 80.0713 114.142 80.0713C113.745 80.0713 113.37 79.9853 113.018 79.8134C112.709 79.6629 112.466 79.405 112.29 79.1256C112.114 78.8032 112.025 78.4594 112.025 78.094C112.025 77.7286 112.114 77.3633 112.29 77.0409C112.466 76.74 112.709 76.5036 113.018 76.3316C113.348 76.1597 113.723 76.0737 114.076 76.0737C114.649 76.0737 115.178 76.2886 115.553 76.654ZM114.98 77.7931C114.98 77.5567 114.892 77.3418 114.715 77.1698C114.539 77.0194 114.319 76.9334 114.098 76.9334C113.878 76.9334 113.657 76.9979 113.481 77.1483C113.304 77.3203 113.194 77.5352 113.172 77.7716H114.98V77.7931Z" fill="#5940C3"/>
<path d="M120.053 77.0194C119.877 76.9549 119.679 76.9334 119.48 76.9334C119.37 76.9334 119.26 76.9549 119.149 76.9979C119.061 77.0409 119.017 77.1268 119.017 77.2128C119.017 77.3203 119.083 77.4277 119.194 77.4707C119.37 77.5567 119.546 77.6212 119.745 77.6641C119.987 77.7286 120.208 77.8146 120.45 77.9006C120.627 77.9865 120.803 78.094 120.913 78.2444C121.046 78.4164 121.134 78.6313 121.112 78.8677C121.134 79.2331 120.957 79.577 120.649 79.7919C120.296 80.0068 119.899 80.1357 119.48 80.1143C119.149 80.1143 118.841 80.0713 118.532 79.9853C118.245 79.8993 117.981 79.7704 117.738 79.577L118.113 78.8247C118.312 78.9752 118.554 79.1041 118.797 79.1901C119.017 79.2761 119.26 79.319 119.502 79.319C119.635 79.319 119.767 79.2975 119.877 79.2331C119.965 79.1901 120.009 79.1041 120.009 79.0181C120.009 78.9107 119.943 78.8032 119.833 78.7602C119.657 78.6743 119.458 78.6098 119.282 78.5668C119.039 78.5023 118.819 78.4379 118.598 78.3304C118.422 78.2444 118.245 78.137 118.135 77.9865C118.003 77.8146 117.937 77.5997 117.937 77.3847C117.915 77.0194 118.069 76.6755 118.378 76.4606C118.708 76.2456 119.105 76.1382 119.502 76.1382C119.789 76.1382 120.053 76.1812 120.318 76.2456C120.583 76.3101 120.825 76.4176 121.068 76.568L120.671 77.3203C120.472 77.1913 120.274 77.0838 120.053 77.0194Z" fill="#5940C3"/>
<path d="M124.857 76.654C125.21 77.0839 125.387 77.6212 125.365 78.1585C125.365 78.2659 125.365 78.3734 125.365 78.4164H122.498C122.608 78.8892 123.049 79.2116 123.534 79.1901C123.909 79.1901 124.284 79.0397 124.549 78.7818L125.144 79.362C124.946 79.577 124.681 79.7489 124.416 79.8779C124.108 80.0068 123.777 80.0498 123.446 80.0498C123.071 80.0498 122.697 79.9638 122.344 79.7919C122.035 79.6414 121.793 79.3835 121.616 79.1041C121.263 78.4594 121.263 77.6857 121.616 77.0194C121.793 76.74 122.035 76.5036 122.344 76.3316C122.675 76.1597 123.049 76.0737 123.402 76.0737C123.931 76.0952 124.46 76.2886 124.857 76.654ZM124.262 77.7931C124.262 77.5567 124.174 77.3418 124.02 77.1698C123.667 76.8689 123.115 76.8689 122.763 77.1698C122.586 77.3418 122.476 77.5567 122.454 77.7931H124.262Z" fill="#5940C3"/>
<path d="M127.681 77.0625C127.416 77.0625 127.151 77.1699 126.975 77.3419C126.799 77.5568 126.688 77.8147 126.71 78.0941C126.688 78.3735 126.799 78.6529 126.975 78.8678C127.151 79.0613 127.394 79.1687 127.659 79.1472C128.033 79.1687 128.408 78.9968 128.607 78.6959L129.4 79.2117C129.224 79.4911 128.982 79.706 128.695 79.8565C128.364 80.0069 127.989 80.0929 127.637 80.0714C127.262 80.0714 126.909 79.9854 126.578 79.835C126.269 79.6845 126.027 79.4266 125.851 79.1472C125.674 78.8249 125.586 78.481 125.586 78.1156C125.586 77.7502 125.674 77.3849 125.851 77.0625C126.027 76.7616 126.269 76.5252 126.578 76.3747C126.909 76.2028 127.284 76.1168 127.659 76.1168C128.011 76.1168 128.364 76.1813 128.673 76.3317C128.959 76.4607 129.202 76.6756 129.378 76.9335L128.607 77.4708C128.386 77.2129 128.033 77.041 127.681 77.0625Z" fill="#5940C3"/>
<path d="M133.591 76.1382V80.0283H132.466V79.362C132.202 79.8349 131.673 80.1143 131.121 80.0928C130.724 80.1143 130.35 79.9638 130.063 79.6844C129.798 79.3835 129.644 78.9967 129.666 78.5883V76.1382H130.813V78.2659C130.791 78.4808 130.879 78.6743 131.011 78.8462C131.165 78.9967 131.364 79.0611 131.562 79.0611C131.805 79.0611 132.047 78.9752 132.202 78.7817C132.378 78.5883 132.444 78.3304 132.444 78.0725V76.1382H133.591V76.1382Z" fill="#5940C3"/>
<path d="M136.081 76.3103C136.323 76.1813 136.588 76.1168 136.852 76.1168V77.1699C136.786 77.1699 136.742 77.1699 136.676 77.1699C136.367 77.1484 136.081 77.2559 135.838 77.4493C135.64 77.6428 135.507 77.9007 135.529 78.1801V80.0499H134.383V76.1383H135.529V76.8476C135.662 76.6326 135.838 76.4392 136.081 76.3103Z" fill="#5940C3"/>
<path d="M140.448 76.6538C140.801 77.0836 140.977 77.6209 140.955 78.1582C140.955 78.2657 140.955 78.3732 140.955 78.4162H138.089C138.133 78.6526 138.265 78.846 138.463 78.9964C138.662 79.1469 138.882 79.2114 139.125 79.2114C139.5 79.2114 139.875 79.0609 140.139 78.803L140.756 79.3833C140.558 79.5982 140.293 79.7702 140.007 79.8991C139.698 80.0281 139.389 80.0711 139.059 80.0711C138.662 80.0925 138.265 79.9851 137.912 79.8131C137.603 79.6627 137.361 79.4048 137.185 79.1254C136.832 78.4806 136.832 77.7069 137.185 77.0406C137.361 76.7612 137.603 76.5248 137.912 76.3529C138.243 76.181 138.618 76.095 138.971 76.095C139.522 76.0735 140.051 76.2884 140.448 76.6538ZM139.875 77.7929C139.875 77.5565 139.786 77.3415 139.632 77.1696C139.279 76.8687 138.75 76.8687 138.375 77.1696C138.199 77.3415 138.089 77.5565 138.066 77.7929H139.875Z" fill="#5940C3"/>
<path d="M142.144 79.1256C142.255 79.2331 142.321 79.3835 142.299 79.534C142.299 79.6844 142.255 79.8349 142.144 79.9423C141.924 80.1573 141.549 80.1573 141.328 79.9423C141.218 79.8349 141.152 79.6844 141.174 79.534C141.174 79.3835 141.218 79.2331 141.328 79.1256C141.439 79.0182 141.593 78.9752 141.725 78.9752C141.902 78.9537 142.034 79.0182 142.144 79.1256Z" fill="#5940C3"/>
<path d="M57.3453 63.7158C55.2947 65.8865 51.8109 65.994 49.606 63.9952C49.5178 63.9092 49.4076 63.8233 49.3194 63.7158C48.2831 62.6412 47.7318 61.2442 47.7318 59.7827C47.7318 58.3212 48.3051 56.9027 49.3635 55.8496C51.5463 53.6789 55.0963 53.6574 57.3232 55.7851C57.3453 55.8066 57.3673 55.8281 57.3894 55.8496C58.4477 56.9027 59.021 58.2997 59.021 59.7827C58.9769 61.2442 58.3816 62.6627 57.3453 63.7158ZM53.3323 51.8521C51.1495 51.8521 49.0548 52.6902 47.5113 54.1947C45.9679 55.6562 45.0859 57.6765 45.0859 59.7827C45.1962 64.2101 48.9666 67.7349 53.5308 67.6274C57.9185 67.5199 61.4685 64.0812 61.5787 59.7827C61.5787 57.6765 60.6967 55.6562 59.1533 54.1947C57.6099 52.6902 55.5152 51.8521 53.3323 51.8521Z" fill="#5940C3"/>
<path d="M69.3818 55.5486C68.0148 55.5056 66.6918 55.9784 65.6555 56.8596V55.7205H63.4727V67.5198H65.6555V61.2655C65.6555 60.0405 65.9863 59.1163 66.6477 58.4715C67.3974 57.8268 68.3676 57.5259 69.3598 57.6118C71.256 57.6118 72.2262 58.6865 72.2262 60.8357V67.5198H74.409V60.8142C74.409 57.139 72.9097 55.5486 69.3818 55.5486Z" fill="#5940C3"/>
<path d="M82.9219 57.6117C84.774 57.6332 86.4056 58.8583 86.8687 60.5992H78.9751C79.416 58.8583 81.0477 57.6117 82.9219 57.6117ZM82.9219 55.5485C79.4601 55.527 76.6158 58.2565 76.5938 61.6308C76.6158 65.0481 79.4601 67.7991 82.966 67.7776C85.3473 67.7561 87.5081 66.4665 88.5885 64.3818L88.7208 64.1239H86.119L86.0749 64.1884C85.3252 65.134 84.1566 65.6928 82.9219 65.6928C81.0256 65.6713 79.394 64.3818 78.9751 62.5979H89.25V61.6093C89.2279 58.2565 86.3836 55.5485 82.9219 55.5485Z" fill="#5940C3"/>
<path d="M111.298 66.0153C108.829 65.9723 106.844 64.038 106.756 61.6309C106.822 59.2238 108.829 57.3109 111.298 57.3109C113.701 57.3109 115.62 59.2023 115.62 61.5449C115.62 61.5664 115.62 61.6094 115.62 61.6309C115.664 64.0165 113.723 65.9723 111.298 66.0153ZM111.232 55.5486C109.446 55.5486 107.77 56.3223 106.624 57.6548V55.7205H104.771V72.8069H106.624V65.607C107.748 66.961 109.424 67.7562 111.232 67.7777C114.694 67.7347 117.494 65.0052 117.56 61.6309C117.516 58.2566 114.694 55.5486 111.232 55.5486Z" fill="#5940C3"/>
<path d="M124.882 66.0153C122.456 65.9723 120.516 64.0165 120.56 61.6309C120.516 59.2882 122.412 57.3539 124.793 57.3109C124.816 57.3109 124.86 57.3109 124.882 57.3109C127.351 57.3109 129.358 59.2453 129.424 61.6524C129.336 64.038 127.351 65.9723 124.882 66.0153ZM129.534 57.6548C128.387 56.3223 126.712 55.5486 124.926 55.5486C121.464 55.5486 118.642 58.2566 118.598 61.6524C118.642 65.0267 121.464 67.7562 124.926 67.7992C126.712 67.7777 128.41 67.004 129.534 65.6285V67.5628H131.386V55.7635H129.534V57.6548Z" fill="#5940C3"/>
<path d="M139.123 55.5485C137.624 55.5055 136.169 56.0858 135.111 57.1604V55.7419H133.236V67.5197H135.111V61.2439C135.111 58.6004 136.632 57.2464 139.123 57.3109C141.152 57.3109 142.276 58.4714 142.276 60.7926V67.5197H144.151V60.7926C144.129 57.053 142.629 55.5485 139.123 55.5485Z" fill="#5940C3"/>
<path d="M97.319 58.536C94.5849 58.0202 93.4604 57.311 93.4604 56.0429C93.4604 54.7964 94.9156 53.8292 96.9441 53.8292C98.7742 53.8292 100.119 54.56 100.428 55.6776H102.412C102.082 53.3349 99.9428 51.8519 96.9441 51.8519C93.6147 51.8519 91.4539 53.4853 91.4539 56.0429C91.4539 58.4286 93.1076 59.7611 96.9662 60.5133C99.8767 61.0721 101.089 61.5664 101.089 63.2213C101.089 64.7473 99.3916 65.8219 96.9441 65.8219C94.9156 65.8219 93.1517 64.7473 92.8209 63.3503H90.8145C91.0349 66.0153 93.4824 67.7992 96.9441 67.7992C100.715 67.7992 103.074 66.0368 103.074 63.2213C103.074 60.6853 101.42 59.3312 97.341 58.536" fill="#5940C3"/>
</svg>
