<svg width="156" height="128" viewBox="0 0 156 128" fill="none" xmlns="http://www.w3.org/2000/svg">
<path d="M0 0H156V128H0V0Z" fill="white"/>
<g clip-path="url(#clip0_3311_3195)">
<path fill-rule="evenodd" clip-rule="evenodd" d="M30.6074 18.2858H124.405V109.714H30.6074V18.2858Z" fill="white"/>
<path fill-rule="evenodd" clip-rule="evenodd" d="M39.2875 39.4994C37.8073 39.4994 36.8773 39.7342 36.361 40.2379C35.9134 40.8085 35.707 41.7482 35.707 43.1242V52.4878H119.308V43.1242C119.308 40.6743 118.068 39.4994 115.589 39.4994H39.2875Z" fill="#315881"/>
<path fill-rule="evenodd" clip-rule="evenodd" d="M35.707 84.7416C35.707 87.2243 36.9119 88.5002 39.2875 88.5002H115.589C118.068 88.5002 119.308 87.2247 119.308 84.7416V75.3776H35.707V84.7416Z" fill="#DFA43B"/>
<path fill-rule="evenodd" clip-rule="evenodd" d="M63.3899 56.4821C63.3899 56.9185 63.3209 57.2538 63.1491 57.4891L57.1234 67.7259L56.7443 55.2403H47.1035L50.34 56.7506C51.2694 57.3212 51.7516 58.0592 51.7516 58.9993L52.6465 72.2571H57.3637L68.658 55.2403H62.8737C63.2177 55.5425 63.3899 56.012 63.3899 56.4821ZM102.368 55.7436L102.746 55.2398H96.8577C97.064 55.4409 97.1331 55.542 97.1331 55.6089C97.0635 55.8768 96.9258 56.0452 96.8577 56.2463L88.2841 71.4835C88.0777 71.752 87.8705 71.9872 87.6301 72.2562H92.485L92.2436 71.7524C92.2436 71.3161 92.485 70.5111 93.0013 69.3699L94.0344 67.4902H99.027C99.2343 69.0678 99.372 70.3769 99.4406 71.3507L99.027 72.2566H105.053L104.157 70.9812L102.368 55.7436ZM98.7861 65.1076H95.2052L98.2694 59.3683L98.7861 65.1076ZM83.9114 54.3676C82.0525 54.3676 80.4681 54.8713 79.0564 55.8778C77.5066 56.7506 76.7494 57.8581 76.7494 59.2346C76.7494 60.8122 77.3003 62.1882 78.4019 63.2284L81.7425 65.4767C82.9479 66.3162 83.5333 67.0543 83.5333 67.7259C83.5333 68.3634 83.2223 68.934 82.6379 69.3704C82.0525 69.8068 81.3975 70.0079 80.5717 70.0079C79.3664 70.0079 77.3007 69.1693 74.4429 67.6254V70.7464C76.6808 72.0555 78.8506 72.7272 80.9503 72.7272C82.9479 72.7272 84.635 72.1898 86.0817 70.9817C87.631 69.8736 88.3882 68.5655 88.3882 67.1221C88.3882 65.913 87.8369 64.806 86.5975 63.6311L83.3946 61.3823C82.3284 60.5432 81.7425 59.8047 81.7425 59.2346C81.7425 57.9259 82.5343 57.2543 84.1527 57.2543C85.2544 57.2543 86.8729 57.8586 89.0417 59.134L89.6967 55.8783C87.8709 54.8708 85.9775 54.3676 83.9114 54.3676ZM71.1028 72.2566C71.0337 71.5518 70.8959 70.9143 70.8268 70.2427L75.2 56.4821L76.2331 55.2403H69.932C70.0011 55.5425 70.0697 55.9452 70.1388 56.2473C70.1388 56.5494 70.1388 56.9189 70.0697 57.2543L65.697 70.8806L64.8016 72.2571L71.1028 72.2566Z" fill="#315881"/>
</g>
<defs>
<clipPath id="clip0_3311_3195">
<rect width="93.7975" height="91.4286" fill="white" transform="translate(30.6074 18.2858)"/>
</clipPath>
</defs>
</svg>
