<svg width="25" height="24" viewBox="0 0 25 24" fill="none" xmlns="http://www.w3.org/2000/svg">
<path d="M19.2225 17.4698C19.2962 17.5385 19.3553 17.6213 19.3963 17.7133C19.4372 17.8053 19.4593 17.9046 19.4611 18.0053C19.4628 18.106 19.4443 18.2061 19.4066 18.2994C19.3689 18.3928 19.3127 18.4777 19.2415 18.5489C19.1703 18.6201 19.0855 18.6762 18.9921 18.714C18.8987 18.7517 18.7987 18.7702 18.698 18.7684C18.5972 18.7667 18.4979 18.7446 18.4059 18.7036C18.3139 18.6626 18.2311 18.6035 18.1625 18.5298L12.6925 13.0608L7.22247 18.5298C7.0803 18.6623 6.89225 18.7344 6.69795 18.731C6.50365 18.7276 6.31826 18.6489 6.18085 18.5115C6.04344 18.3741 5.96473 18.1887 5.9613 17.9944C5.95787 17.8001 6.02999 17.612 6.16247 17.4698L11.6315 11.9998L6.16247 6.52985C6.02999 6.38767 5.95787 6.19963 5.9613 6.00532C5.96473 5.81102 6.04344 5.62564 6.18085 5.48822C6.31826 5.35081 6.50365 5.2721 6.69795 5.26867C6.89225 5.26524 7.0803 5.33737 7.22247 5.46985L12.6925 10.9388L18.1625 5.46985C18.3046 5.33737 18.4927 5.26524 18.687 5.26867C18.8813 5.2721 19.0667 5.35081 19.2041 5.48822C19.3415 5.62564 19.4202 5.81102 19.4236 6.00532C19.4271 6.19963 19.355 6.38767 19.2225 6.52985L13.7535 11.9998L19.2225 17.4698Z" fill="#212122"/>
</svg>
