<svg width="60" height="60" viewBox="0 0 60 60" fill="none" xmlns="http://www.w3.org/2000/svg">
<g clip-path="url(#clip0_3311_3398)">
<path d="M24.9996 7.50049H12.4999C11.1192 7.50049 10 8.61972 10 10.0004V22.5002C10 23.8808 11.1192 25.0001 12.4999 25.0001H24.9997C26.3804 25.0001 27.4996 23.8808 27.4996 22.5002V10.0005C27.4996 8.61984 26.3802 7.50049 24.9996 7.50049ZM22.4997 20.0003H14.9998V12.5004H22.4997V20.0003Z" fill="white"/>
<path d="M24.9996 27.5H12.4999C11.1192 27.5 10 28.6192 10 29.9999C10 31.3806 11.1192 32.4998 12.4999 32.4998H24.9997C26.3804 32.4998 27.4996 31.3806 27.4996 29.9999C27.4996 28.6192 26.3802 27.5 24.9996 27.5Z" fill="white"/>
<path d="M32.4999 17.5003H34.9998C36.3805 17.5003 37.4997 16.3811 37.4997 15.0004C37.4997 13.6197 36.3805 12.5005 34.9998 12.5005H32.4999C31.1192 12.5005 30 13.6197 30 15.0004C30 16.381 31.1192 17.5003 32.4999 17.5003Z" fill="white"/>
<path d="M47.4998 12.5002H42.4999C41.1192 12.5002 40 13.6195 40 15.0002C40 16.3808 41.1192 17.5001 42.4999 17.5001H47.4998C48.8805 17.5001 49.9997 16.3808 49.9997 15.0002C49.9999 13.6195 48.8805 12.5002 47.4998 12.5002Z" fill="white"/>
<path d="M47.4998 20.0002H44.9999C43.6192 20.0002 42.5 21.1195 42.5 22.5002C42.5 23.8808 43.6192 25.0001 44.9999 25.0001H47.4998C48.8805 25.0001 49.9997 23.8808 49.9997 22.5002C49.9997 21.1195 48.8805 20.0002 47.4998 20.0002Z" fill="white"/>
<path d="M37.4998 20.0002H32.4999C31.1192 20.0002 30 21.1195 30 22.5002C30 23.8808 31.1192 25.0001 32.4999 25.0001H37.4998C38.8805 25.0001 39.9997 23.8808 39.9997 22.5002C39.9997 21.1195 38.8805 20.0002 37.4998 20.0002Z" fill="white"/>
<path d="M34.9998 27.5H32.4999C31.1192 27.5 30 28.6192 30 29.9999C30 31.3806 31.1192 32.4998 32.4999 32.4998H34.9998C36.3805 32.4998 37.4997 31.3806 37.4997 29.9999C37.4997 28.6192 36.3805 27.5 34.9998 27.5Z" fill="white"/>
<path d="M47.4998 27.5H42.4999C41.1192 27.5 40 28.6192 40 29.9999C40 31.3806 41.1192 32.4998 42.4999 32.4998H47.4998C48.8805 32.4998 49.9997 31.3806 49.9997 29.9999C49.9999 28.6192 48.8805 27.5 47.4998 27.5Z" fill="white"/>
<path d="M59.9987 37.4748V6.9778C59.9987 3.12464 56.8744 0.000488285 53.0214 0.000488285H6.97731C3.12427 0.0003711 0 3.12464 0 6.9778V37.4997C0 37.508 0.00117185 37.5161 0.00128903 37.5244V43.022C0.00128903 46.8752 3.1231 49.9993 6.97614 49.9993H19.2977L18.0477 54.9993H17.4996C16.1189 54.9993 14.9997 56.1185 14.9997 57.4992C14.9997 58.8798 16.1189 59.9991 17.4996 59.9991H19.9995H39.9991H42.499C43.8797 59.9991 44.9989 58.8798 44.9989 57.4992C44.9989 56.1185 43.8797 54.9993 42.499 54.9993H41.9509L40.7009 49.9993H53.0225C56.8756 49.9993 59.9998 46.8751 59.9998 43.022V37.4997C60 37.4912 59.9988 37.4832 59.9987 37.4748ZM4.99993 6.9778C4.99993 5.88599 5.88562 5.0003 6.97743 5.0003H53.0214C54.1132 5.0003 54.9989 5.88599 54.9989 6.9778V34.9997H4.99993V6.9778ZM36.7973 54.9993H23.2015L24.4515 49.9993H35.5474L36.7973 54.9993ZM55.0001 43.022C55.0001 44.1138 54.1144 44.9995 53.0226 44.9995H37.4992H22.4995H6.97614C5.88526 44.9995 5.00122 44.1148 5.00122 43.022V39.9996H55.0002V43.022H55.0001Z" fill="white"/>
</g>
<defs>
<clipPath id="clip0_3311_3398">
<rect width="60" height="60" fill="white"/>
</clipPath>
</defs>
</svg>
