<svg width="60" height="61" viewBox="0 0 60 61" fill="none" xmlns="http://www.w3.org/2000/svg">
<g clip-path="url(#clip0_3311_3346)">
<path d="M42.1875 1.4375H17.8125C16.8183 1.4388 15.8653 1.83431 15.1623 2.53729C14.4593 3.24027 14.0638 4.19334 14.0625 5.1875V55.8125C14.0638 56.8067 14.4593 57.7597 15.1623 58.4627C15.8653 59.1657 16.8183 59.5612 17.8125 59.5625H42.1875C43.1817 59.5612 44.1347 59.1657 44.8377 58.4627C45.5407 57.7597 45.9362 56.8067 45.9375 55.8125V5.1875C45.9362 4.19334 45.5407 3.24027 44.8377 2.53729C44.1347 1.83431 43.1817 1.4388 42.1875 1.4375V1.4375ZM34.3875 3.3125L33.8602 5.1875H26.0449L25.5762 3.3125H34.3875ZM44.0625 55.8125C44.0618 56.3096 43.8641 56.7861 43.5126 57.1376C43.1611 57.4891 42.6846 57.6868 42.1875 57.6875H17.8125C17.3154 57.6868 16.8389 57.4891 16.4874 57.1376C16.1359 56.7861 15.9382 56.3096 15.9375 55.8125V5.1875C15.9382 4.69042 16.1359 4.21388 16.4874 3.86239C16.8389 3.5109 17.3154 3.31315 17.8125 3.3125H23.6426L24.4031 6.35234C24.4538 6.55516 24.5709 6.73522 24.7356 6.86389C24.9004 6.99256 25.1034 7.06247 25.3125 7.0625H34.5703C34.7746 7.0625 34.9733 6.99576 35.1362 6.87243C35.2991 6.7491 35.4172 6.57594 35.4727 6.3793L36.3352 3.3125H42.1875C42.6846 3.31315 43.1611 3.5109 43.5126 3.86239C43.8641 4.21388 44.0618 4.69042 44.0625 5.1875V55.8125Z" fill="white" stroke="white" stroke-width="2"/>
<path d="M33.2949 25.0086C33.1893 24.9453 33.0723 24.9033 32.9505 24.8852C32.8287 24.8671 32.7046 24.8731 32.5851 24.903C32.4657 24.9329 32.3533 24.9859 32.2544 25.0592C32.1555 25.1325 32.072 25.2246 32.0086 25.3302L26.3836 34.7052C26.2557 34.9184 26.2177 35.1737 26.278 35.4149C26.3383 35.6561 26.492 35.8635 26.7052 35.9914C26.9184 36.1194 27.1737 36.1573 27.4149 36.097C27.6561 36.0367 27.8635 35.8831 27.9914 35.6699L33.6164 26.2949C33.6798 26.1893 33.7217 26.0723 33.7398 25.9505C33.7579 25.8287 33.7519 25.7046 33.722 25.5851C33.6922 25.4657 33.6391 25.3533 33.5658 25.2544C33.4925 25.1555 33.4004 25.0719 33.2949 25.0086Z" fill="white" stroke="white" stroke-width="2"/>
<path d="M36.3573 25.2265C36.2803 25.1304 36.1852 25.0503 36.0773 24.991C35.9694 24.9316 35.8509 24.894 35.7285 24.8805C35.4813 24.8531 35.2334 24.925 35.0392 25.0804C34.8451 25.2358 34.7206 25.4619 34.6932 25.7091C34.6658 25.9563 34.7377 26.2042 34.8931 26.3984L38.1744 30.4999L34.8931 34.6015C34.7377 34.7957 34.6658 35.0436 34.6932 35.2908C34.7206 35.5379 34.8451 35.7641 35.0392 35.9195C35.2334 36.0749 35.4813 36.1468 35.7285 36.1194C35.9757 36.092 36.2019 35.9675 36.3573 35.7734L40.1073 31.0859C40.2404 30.9196 40.3129 30.7129 40.3129 30.4999C40.3129 30.2869 40.2404 30.0803 40.1073 29.914L36.3573 25.2265Z" fill="white" stroke="white" stroke-width="2"/>
<path d="M23.6432 35.7736C23.7986 35.9678 24.0247 36.0923 24.2719 36.1197C24.5191 36.1471 24.767 36.0752 24.9612 35.9198C25.1553 35.7644 25.2798 35.5382 25.3072 35.291C25.3346 35.0439 25.2627 34.7959 25.1073 34.6018L21.8261 30.5002L25.1073 26.3986C25.1842 26.3025 25.2415 26.1921 25.2758 26.0739C25.3101 25.9556 25.3208 25.8317 25.3072 25.7094C25.2936 25.587 25.2561 25.4684 25.1967 25.3606C25.1373 25.2527 25.0573 25.1576 24.9612 25.0806C24.865 25.0037 24.7547 24.9464 24.6364 24.9121C24.5182 24.8778 24.3943 24.8671 24.2719 24.8807C24.1495 24.8943 24.031 24.9318 23.9231 24.9912C23.8152 25.0506 23.7201 25.1306 23.6432 25.2267L19.8932 29.9143C19.76 30.0805 19.6875 30.2872 19.6875 30.5002C19.6875 30.7132 19.76 30.9199 19.8932 31.0861L23.6432 35.7736Z" fill="white" stroke="white" stroke-width="2"/>
</g>
<defs>
<clipPath id="clip0_3311_3346">
<rect width="60" height="60" fill="white" transform="translate(0 0.5)"/>
</clipPath>
</defs>
</svg>
