<svg width="60" height="61" viewBox="0 0 60 61" fill="none" xmlns="http://www.w3.org/2000/svg">
<path d="M37.5 39.6013C37.5 37.4713 38.7038 35.5231 40.6088 34.5706L45 32.375L31.875 6.125H28.125L15 32.375L19.3913 34.5706C21.2963 35.5231 22.5 37.4713 22.5 39.6013V39.875H18.75V54.875H41.25V39.875H37.5V39.6013ZM21.0675 31.2162L20.0306 30.6988L28.125 14.51V28.625H31.875V14.51L39.9694 30.6969L38.9325 31.2144C35.7356 32.8138 33.75 36.0275 33.75 39.6013V39.875H26.25V39.6013C26.25 36.0275 24.2644 32.8137 21.0675 31.2162ZM37.5 51.125H22.5V43.625H37.5V51.125Z" fill="#F6F6F6"/>
</svg>
