<svg width="94" height="94" viewBox="0 0 94 94" fill="none" xmlns="http://www.w3.org/2000/svg">
<circle cx="47" cy="47" r="47" fill="#377DFF" fill-opacity="0.3"/>
<path d="M47.8594 59.8906C47.8594 60.3653 47.4747 60.75 47 60.75C46.5253 60.75 46.1406 60.3653 46.1406 59.8906C46.1406 59.416 46.5253 59.0312 47 59.0312C47.4747 59.0312 47.8594 59.416 47.8594 59.8906Z" fill="white"/>
<path d="M66.1641 52.1562C66.1641 49.3129 63.8511 47 61.0078 47C58.1645 47 55.8516 49.3129 55.8516 52.1562C55.8516 54.9996 58.1645 57.3125 61.0078 57.3125C63.8511 57.3125 66.1641 54.9996 66.1641 52.1562ZM61.0078 55.5938C59.1125 55.5938 57.5703 54.0516 57.5703 52.1562C57.5703 50.2609 59.1125 48.7188 61.0078 48.7188C62.9031 48.7188 64.4453 50.2609 64.4453 52.1562C64.4453 54.0516 62.9031 55.5938 61.0078 55.5938Z" fill="white"/>
<path d="M61.0078 57.3125C58.8423 57.3125 56.6827 58.2115 55.2117 59.6691C53.2755 57.1245 50.2898 55.5938 47 55.5938C43.8495 55.5938 40.7967 57.0312 38.7886 59.6691C37.3173 58.2118 35.1581 57.3125 32.9922 57.3125C28.6601 57.3125 25 60.8544 25 65.0469V66.7656C25 67.2403 25.3847 67.625 25.8594 67.625H68.1406C68.6153 67.625 69 67.2403 69 66.7656V65.0469C69 60.8544 65.3399 57.3125 61.0078 57.3125ZM26.7188 65.0469C26.7188 61.7859 29.5916 59.0312 32.9922 59.0312C34.8529 59.0312 36.6982 59.8557 37.8406 61.1663C37.0853 62.6252 36.6875 64.2513 36.6875 65.9062H26.7188V65.0469ZM47 57.3125C51.782 57.3125 55.5938 61.1924 55.5938 65.9062H38.4062C38.4062 61.1297 42.2959 57.3125 47 57.3125ZM67.2812 65.9062H57.3125C57.3125 64.2513 56.9147 62.6252 56.1594 61.1663C57.3018 59.8557 59.1471 59.0312 61.0078 59.0312C64.4084 59.0312 67.2812 61.7859 67.2812 65.0469V65.9062Z" fill="white"/>
<path d="M38.1484 52.1562C38.1484 49.3129 35.8355 47 32.9922 47C30.1489 47 27.8359 49.3129 27.8359 52.1562C27.8359 54.9996 30.1489 57.3125 32.9922 57.3125C35.8355 57.3125 38.1484 54.9996 38.1484 52.1562ZM32.9922 55.5938C31.0969 55.5938 29.5547 54.0516 29.5547 52.1562C29.5547 50.2609 31.0969 48.7188 32.9922 48.7188C34.8875 48.7188 36.4297 50.2609 36.4297 52.1562C36.4297 54.0516 34.8875 55.5938 32.9922 55.5938Z" fill="white"/>
<path d="M53.875 48.7188C53.875 44.9278 50.791 41.8438 47 41.8438C43.209 41.8438 40.125 44.9278 40.125 48.7188C40.125 52.5097 43.209 55.5938 47 55.5938C50.791 55.5938 53.875 52.5097 53.875 48.7188ZM47 53.875C44.1567 53.875 41.8438 51.5621 41.8438 48.7188C41.8438 45.8754 44.1567 43.5625 47 43.5625C49.8433 43.5625 52.1562 45.8754 52.1562 48.7188C52.1562 51.5621 49.8433 53.875 47 53.875Z" fill="white"/>
<path d="M53.8009 31.3731C53.6998 31.062 53.4309 30.8354 53.107 30.7884L49.4003 30.2502L47.7406 26.8571C47.5966 26.562 47.2971 26.375 46.9688 26.375C46.6405 26.375 46.3411 26.562 46.1967 26.8567L44.5374 30.2502L40.8307 30.788C40.5067 30.835 40.2378 31.062 40.1368 31.3731C40.0358 31.6843 40.12 32.0257 40.3543 32.254L43.0385 34.8701L42.4051 38.5644C42.3497 38.8866 42.4823 39.2126 42.7471 39.4046C43.0103 39.5959 43.3608 39.6231 43.6522 39.4701L46.9688 37.7261L50.2868 39.4701C50.5762 39.6225 50.927 39.597 51.1919 39.4046C51.4564 39.2122 51.589 38.8866 51.5336 38.564L50.8995 34.8701L53.5833 32.254C53.8177 32.0257 53.9019 31.6843 53.8009 31.3731ZM49.3758 33.9546C49.1733 34.152 49.0807 34.4367 49.1287 34.7153L49.5446 37.1387L47.3686 35.9946C47.1182 35.863 46.8191 35.863 46.5687 35.9946L44.3934 37.1387L44.809 34.7153C44.8566 34.4363 44.764 34.152 44.5616 33.9546L42.8012 32.2389L45.2333 31.8857C45.5146 31.8451 45.7573 31.6679 45.8819 31.4127L46.9688 29.1905L48.0555 31.4127C48.1804 31.6682 48.4231 31.8451 48.704 31.8857L51.1365 32.2389L49.3758 33.9546Z" fill="white"/>
<path d="M66.6461 37.8141C66.545 37.5029 66.2761 37.2763 65.9522 37.2293L63.4409 36.8644L62.318 34.5884C62.1733 34.295 61.8749 34.1094 61.5476 34.1094C61.5476 34.1094 61.5476 34.1094 61.5472 34.1094C61.2203 34.1094 60.9215 34.295 60.7768 34.5884L59.6532 36.8644L57.1416 37.2293C56.818 37.2763 56.5491 37.5029 56.448 37.8141C56.3467 38.1253 56.4309 38.4667 56.6652 38.6949L58.4823 40.4671L58.0533 42.968C57.9983 43.2903 58.1305 43.6159 58.3954 43.8082C58.6599 44.0006 59.0107 44.0261 59.3001 43.874L61.5472 42.6934L63.7937 43.874C64.0831 44.0261 64.4342 44.0006 64.6987 43.8082C64.9632 43.6162 65.0955 43.2903 65.0404 42.968L64.6114 40.4671L66.4289 38.6949C66.6632 38.4667 66.7471 38.1253 66.6461 37.8141V37.8141ZM63.0884 39.552C62.8856 39.7494 62.7933 40.0337 62.8413 40.3123L63.0521 41.5423L61.9474 40.9619C61.6969 40.8303 61.3978 40.8303 61.1477 40.9619L60.042 41.5426L60.2531 40.3123C60.3008 40.0337 60.2085 39.7494 60.0061 39.552L59.1118 38.6798L60.3475 38.5006C60.6274 38.46 60.8695 38.2841 60.9947 38.0306L61.5472 36.9111L62.0994 38.0303C62.2247 38.2841 62.4667 38.46 62.7467 38.5006L63.9823 38.6798L63.0884 39.552Z" fill="white"/>
<path d="M37.4273 37.8141C37.3263 37.5029 37.0574 37.2763 36.7334 37.2293L34.2221 36.8644L33.0992 34.5884C32.9545 34.295 32.6561 34.1094 32.3288 34.1094C32.0015 34.1094 31.7027 34.295 31.5581 34.5884L30.4345 36.8644L27.9228 37.2293C27.5992 37.2763 27.3303 37.5029 27.2293 37.8141C27.1279 38.1253 27.2122 38.4667 27.4465 38.6949L29.2636 40.4671L28.8349 42.968C28.7795 43.2903 28.9121 43.6159 29.1766 43.8082C29.4412 44.0006 29.792 44.0261 30.0817 43.874L32.3285 42.6934L34.5749 43.874C34.8663 44.0271 35.2168 43.9996 35.48 43.8082C35.7445 43.6162 35.8771 43.2903 35.8217 42.968L35.3927 40.4671L37.2101 38.6949C37.4444 38.4667 37.5284 38.1253 37.4273 37.8141ZM33.8693 39.552C33.6669 39.7494 33.5746 40.0337 33.6222 40.3123L33.8334 41.5423L32.7283 40.9619C32.4782 40.8303 32.1791 40.8303 31.929 40.9619L30.8229 41.5426L31.034 40.3123C31.082 40.0337 30.9894 39.7494 30.787 39.552L29.8927 38.6798L31.1287 38.5006C31.4083 38.46 31.6504 38.2841 31.7756 38.0306L32.3281 36.9111L32.8804 38.0303C33.0056 38.2841 33.2476 38.46 33.5276 38.5006L34.7633 38.6798L33.8693 39.552Z" fill="white"/>
<path d="M50.7679 60.1565C50.3711 59.8957 49.8384 60.0061 49.5779 60.4029C49.317 60.7993 49.4275 61.3321 49.8243 61.5929C50.6189 62.1149 51.254 62.8427 51.6609 63.6974C51.8643 64.1254 52.3766 64.3083 52.8059 64.1039C53.2346 63.9001 53.4165 63.3872 53.2128 62.9589C52.671 61.8202 51.8253 60.851 50.7679 60.1565V60.1565Z" fill="white"/>
</svg>
