<svg width="887" height="116" viewBox="0 0 887 116" fill="none" xmlns="http://www.w3.org/2000/svg">
<g opacity="0.4">
<path d="M0.999997 35.6081C0.999997 35.6081 38.347 1.00001 94.7849 1.00001C151.223 1.00001 188.57 35.6081 188.57 35.6081" stroke="#0A65CC" stroke-width="1.5" stroke-linecap="round" stroke-linejoin="round" stroke-dasharray="12 8"/>
<path d="M187.523 25.0029L189.22 36.2886L177.964 37.8848" stroke="#0A65CC" stroke-width="1.5" stroke-linecap="round" stroke-linejoin="round"/>
</g>
<g opacity="0.4">
<path d="M329 75.1918C329 75.1918 371.959 115 436.877 115C501.795 115 544.754 75.1917 544.754 75.1917" stroke="#0A65CC" stroke-width="1.5" stroke-linecap="round" stroke-linejoin="round" stroke-dasharray="12 8"/>
<path d="M543.551 87.3906L545.502 74.4091L532.555 72.5732" stroke="#0A65CC" stroke-width="1.5" stroke-linecap="round" stroke-linejoin="round"/>
</g>
<g opacity="0.4">
<path d="M665 46.8082C665 46.8082 707.959 7.00001 772.877 7.00001C837.795 7.00001 880.754 46.8083 880.754 46.8083" stroke="#0A65CC" stroke-width="1.5" stroke-linecap="round" stroke-linejoin="round" stroke-dasharray="12 8"/>
<path d="M879.551 34.6094L881.502 47.5909L868.555 49.4268" stroke="#0A65CC" stroke-width="1.5" stroke-linecap="round" stroke-linejoin="round"/>
</g>
</svg>
