<svg width="94" height="94" viewBox="0 0 94 94" fill="none" xmlns="http://www.w3.org/2000/svg">
<circle cx="47" cy="47" r="47" fill="#377DFF" fill-opacity="0.3"/>
<path d="M53.2149 34.5517L55.7999 39.7217C56.1482 40.4367 57.0832 41.1151 57.8716 41.2617L62.5466 42.0317C65.5349 42.5267 66.2316 44.6901 64.0866 46.8534L60.4382 50.5017C59.8332 51.1067 59.4849 52.2984 59.6866 53.1601L60.7316 57.6701C61.5566 61.2267 59.6499 62.6201 56.5149 60.7501L52.1332 58.1467C51.3449 57.6701 50.0249 57.6701 49.2366 58.1467L44.8549 60.7501C41.7199 62.6017 39.8132 61.2267 40.6382 57.6701L41.6833 53.1601C41.8849 52.3167 41.5366 51.1251 40.9316 50.5017L37.2833 46.8534C35.1383 44.7084 35.8349 42.5451 38.8233 42.0317L43.4982 41.2617C44.2866 41.1334 45.2216 40.4367 45.5699 39.7217L48.1549 34.5517C49.5299 31.7467 51.8033 31.7467 53.2149 34.5517Z" stroke="white" stroke-width="3" stroke-linecap="round" stroke-linejoin="round"/>
<path d="M39.6665 34.1667H28.6665" stroke="white" stroke-width="3" stroke-linecap="round" stroke-linejoin="round"/>
<path d="M34.1665 59.8333H28.6665" stroke="white" stroke-width="3" stroke-linecap="round" stroke-linejoin="round"/>
<path d="M30.4998 47H28.6665" stroke="white" stroke-width="3" stroke-linecap="round" stroke-linejoin="round"/>
</svg>
