<svg width="180" height="180" viewBox="0 0 180 180" fill="none" xmlns="http://www.w3.org/2000/svg">
<circle cx="90" cy="90" r="90" fill="#377DFF" fill-opacity="0.3"/>
<circle cx="90.0005" cy="90.0007" r="70.8511" fill="#377DFF"/>
<path d="M112.985 71.4351H102.812V68.8357C102.812 66.709 102.074 64.917 100.598 63.4598C99.1222 62.0025 97.307 61.2739 95.1527 61.2739H84.8602C82.7059 61.2739 80.8908 62.0025 79.4147 63.4598C77.9386 64.917 77.2006 66.709 77.2006 68.8357V71.4351H67.0277C64.8735 71.4351 63.0583 72.144 61.5823 73.5618C60.1062 74.9797 59.3682 76.7914 59.3682 78.9969V89.0399C59.3682 90.694 60.2059 91.5211 61.8815 91.5211V111.725C61.8815 113.064 62.4001 114.246 63.4373 115.27C64.4745 116.294 65.6714 116.806 67.0277 116.806H112.985C114.342 116.806 115.538 116.294 116.576 115.27C117.613 114.246 118.131 113.064 118.131 111.725V91.5211C119.807 91.5211 120.645 90.694 120.645 89.0399V78.9969C120.645 76.7914 119.907 74.9797 118.431 73.5618C116.955 72.144 115.139 71.4351 112.985 71.4351ZM82.3469 68.8357C82.3469 68.1268 82.5862 67.536 83.065 67.0634C83.5437 66.5908 84.1421 66.3545 84.8602 66.3545H95.1527C95.8708 66.3545 96.4692 66.5908 96.948 67.0634C97.4267 67.536 97.666 68.1268 97.666 68.8357V71.4351H82.3469V68.8357ZM67.0277 111.725V91.5211H82.3469V99.0829C82.3469 100.501 82.8456 101.702 83.8429 102.687C84.8402 103.671 86.057 104.163 87.4932 104.163H92.5198C93.9559 104.163 95.1727 103.671 96.17 102.687C97.1674 101.702 97.666 100.501 97.666 99.0829V91.5211H112.985V111.725H67.0277ZM87.4932 99.0829V91.5211H92.5198V99.0829H87.4932ZM115.498 86.5587H64.5144V78.9969C64.5144 77.264 65.3522 76.3975 67.0277 76.3975H112.985C114.661 76.3975 115.498 77.264 115.498 78.9969V86.5587Z" fill="white"/>
</svg>
