<svg width="32" height="28" viewBox="0 0 32 28" fill="none" xmlns="http://www.w3.org/2000/svg">
<path d="M19.4822 12.1638C20.078 12.2367 20.6439 12.45 20.9716 13.083C21.2695 13.649 21.1742 14.1726 20.784 14.623C19.5775 16.0413 19.3779 17.5632 20.218 19.2251C20.3699 19.5292 20.352 19.8214 20.2239 20.1318C19.4584 21.9826 19.4256 23.7904 20.5516 25.5313C20.8882 26.0487 20.7303 26.5357 20.2984 26.9069C19.786 27.3391 19.2082 27.3695 18.672 26.9495C18.2102 26.5906 18.0583 26.0609 18.3681 25.5798C19.512 23.7842 19.4316 21.9459 18.6839 20.0588C18.5558 19.7362 18.6243 19.4562 18.7584 19.1518C19.4494 17.5813 19.3958 16.0901 18.2341 14.7386C17.7962 14.2334 17.7217 13.6552 17.9838 13.083C18.2579 12.5048 18.7941 12.2367 19.4822 12.1638Z" fill="#5594CA"/>
<path d="M25.0458 3.47807C25.5105 3.45981 25.9365 3.57548 26.1539 4.01376C27.1102 5.90687 28.7902 6.47297 30.7384 6.58864C31.4444 6.63124 31.9627 6.97821 31.9687 7.74521C31.9746 8.45131 31.4861 8.79829 30.8367 8.88351C30.3124 8.95656 29.9103 8.68873 29.6481 8.2626C28.6026 6.53386 27.0863 5.66946 25.0607 5.68164C24.3219 5.68772 23.8364 5.29207 23.8602 4.53115C23.884 3.81894 24.3666 3.50851 25.0458 3.47807Z" fill="#5594CA"/>
<path d="M9.58046 7.69139C9.60429 8.12359 9.47022 8.44012 9.22596 8.72013C8.05825 10.0897 8.08806 11.5933 8.76426 13.1455C8.9549 13.5837 9.06811 13.9796 8.62426 14.3022C8.27276 14.5578 7.86463 14.5518 7.5161 14.3022C7.07225 13.9855 7.16461 13.5959 7.38207 13.1577C8.18636 11.5446 7.99868 10.0411 6.85481 8.63491C6.40798 8.09315 6.34244 7.48442 6.81012 6.90006C7.29865 6.29744 7.954 6.20003 8.63615 6.41308C9.25277 6.60786 9.63408 7.04006 9.58046 7.69139Z" fill="#5594CA"/>
<path d="M25.9131 16.7177C25.9429 17.1622 25.7403 17.3874 25.4484 17.5518C25.1803 17.6978 24.9152 17.6614 24.665 17.5029C24.3165 17.284 24.1943 16.9492 24.3403 16.584C24.6352 15.8413 24.799 15.0925 24.805 14.2891C24.8169 13.2786 24.6888 12.329 24.099 11.4767C23.7147 10.9167 23.6968 10.3566 24.239 9.89401C24.7871 9.41922 25.3888 9.41311 25.9488 9.88794C26.5029 10.3566 26.4344 10.8801 26.0948 11.4706C25.1803 13.035 25.1743 14.6847 25.7612 16.3588C25.8148 16.5047 25.8803 16.6447 25.9131 16.7177Z" fill="#5594CA"/>
<path d="M15.0398 10.8135C14.9743 10.9717 14.9118 11.203 14.7896 11.3978C13.7798 12.956 13.8275 14.6057 14.3935 16.2798C14.5454 16.7243 14.6794 17.1136 14.2594 17.4547C13.9436 17.7103 13.5802 17.6799 13.2734 17.4484C12.8236 17.1199 13.0053 16.718 13.1543 16.2798C13.6994 14.5998 13.7202 12.9501 12.7402 11.3917C12.4334 10.9048 12.4393 10.3934 12.8415 9.97342C13.2198 9.58385 13.6934 9.41948 14.2415 9.66297C14.7062 9.87601 14.9922 10.2108 15.0398 10.8135Z" fill="#5594CA"/>
<path d="M30.6735 12.8468C31.3736 12.8105 31.8412 13.4798 31.5017 14.1617C30.6557 15.8662 30.6855 17.4733 31.7817 19.0681C32.1392 19.5856 32.0468 20.1271 31.5493 20.5471C31.0191 20.9916 30.4531 20.9672 29.9288 20.5593C29.4075 20.1575 29.3569 19.6037 29.6935 19.0801C30.6974 17.5036 30.6854 15.8906 29.9675 14.2347C29.625 13.4494 29.9467 13.0416 30.6735 12.8468Z" fill="#5594CA"/>
<path d="M19.5018 3.26472C18.5932 3.28298 17.8574 2.61947 17.8753 1.76725C17.8991 0.805471 18.48 0.342856 19.3737 0.257631C20.2376 0.178483 21.0716 0.896774 21.1074 1.68813C21.152 2.48554 20.3656 3.24646 19.5018 3.26472Z" fill="#5594CA"/>
<path d="M13.8269 5.40114C13.3533 5.36462 12.9809 5.15157 12.9154 4.65244C12.8468 4.12894 13.1715 3.83067 13.6631 3.78196C14.2112 3.72718 14.6193 4.00109 14.655 4.55503C14.6938 5.0542 14.3035 5.30377 13.8269 5.40114Z" fill="#5594CA"/>
<path d="M19.4756 8.52392C18.8977 8.4874 18.579 8.21954 18.6028 7.70215C18.6296 7.1969 18.987 6.89252 19.4637 6.91081C19.973 6.92907 20.3752 7.23342 20.3275 7.81171C20.2829 8.32913 19.8956 8.51174 19.4756 8.52392Z" fill="#5594CA"/>
<path d="M25.927 22.5004C25.9091 23.0423 25.6231 23.3223 25.215 23.3771C24.7444 23.4441 24.3631 23.2249 24.3124 22.6952C24.2707 22.2266 24.5746 21.9648 24.9946 21.8918C25.501 21.8066 25.7572 22.1474 25.927 22.5004Z" fill="#5594CA"/>
<path d="M1.85283 25.0274C1.50431 25.0274 1.19155 24.9678 0.908563 24.8487C0.63153 24.7295 0.414086 24.5579 0.250249 24.3339C0.0893916 24.1099 0.00595769 23.8454 0 23.5404H1.07238C1.08727 23.7453 1.15879 23.9074 1.28688 24.0265C1.42093 24.1457 1.60263 24.2053 1.832 24.2053C2.06435 24.2053 2.24903 24.1504 2.38308 24.0408C2.51415 23.9264 2.58267 23.7787 2.58267 23.5976C2.58267 23.4498 2.538 23.3283 2.44566 23.233C2.35629 23.1376 2.24011 23.0638 2.10308 23.0113C1.96904 22.9541 1.78435 22.8922 1.54604 22.8254C1.22135 22.7301 0.956216 22.6372 0.750675 22.5466C0.551092 22.4513 0.378319 22.3107 0.229377 22.1248C0.0863924 21.9342 0.0149088 21.6816 0.0149088 21.367C0.0149088 21.0715 0.0893799 20.8141 0.238322 20.5949C0.384286 20.3756 0.592792 20.2088 0.857909 20.0944C1.12601 19.9753 1.42987 19.9157 1.77542 19.9157C2.28778 19.9157 2.7048 20.042 3.02652 20.2946C3.34823 20.5425 3.52698 20.8904 3.56273 21.3384H2.46053C2.45159 21.1668 2.37713 21.0262 2.2401 20.9166C2.10605 20.8022 1.92731 20.745 1.70389 20.745C1.50729 20.745 1.34942 20.7951 1.23027 20.8952C1.11707 20.9952 1.06049 21.1406 1.06049 21.3313C1.06049 21.4647 1.10217 21.5767 1.18856 21.6673C1.27792 21.7531 1.38817 21.8246 1.51626 21.8817C1.65031 21.9342 1.83499 21.9961 2.0733 22.0676C2.398 22.1629 2.66309 22.2583 2.86863 22.3536C3.07417 22.4489 3.24993 22.5919 3.39589 22.7826C3.54483 22.9732 3.61931 23.2234 3.61931 23.5332C3.61931 23.8001 3.55081 24.048 3.4108 24.2767C3.27377 24.5055 3.0712 24.689 2.8031 24.8272C2.53799 24.9607 2.21923 25.0274 1.85283 25.0274ZM7.31905 22.4179C7.59906 22.4704 7.83139 22.611 8.01012 22.8397C8.19183 23.0685 8.28419 23.3307 8.28419 23.6262C8.28419 23.8931 8.21566 24.129 8.08161 24.3339C7.95352 24.5341 7.76585 24.6914 7.51861 24.8058C7.27136 24.9202 6.97647 24.9774 6.63986 24.9774H4.48616V19.9872H6.54452C6.88411 19.9872 7.17605 20.042 7.41734 20.1516C7.66458 20.2613 7.85225 20.4138 7.97438 20.6092C8.10545 20.8046 8.16801 21.0262 8.16801 21.2741C8.16801 21.5648 8.09055 21.8079 7.93267 22.0033C7.78075 22.1987 7.57523 22.3369 7.31905 22.4179ZM5.48705 22.0462H6.40154C6.63985 22.0462 6.82456 21.9938 6.95265 21.8889C7.08074 21.7793 7.14625 21.6244 7.14625 21.4242C7.14625 21.224 7.08074 21.0691 6.95265 20.9595C6.82456 20.8499 6.63985 20.7951 6.40154 20.7951H5.48705V22.0462ZM6.49688 24.1624C6.73817 24.1624 6.92584 24.1052 7.05989 23.9908C7.19989 23.8764 7.26839 23.7143 7.26839 23.5046C7.26839 23.2901 7.19691 23.1233 7.05393 23.0042C6.91094 22.8803 6.71729 22.8183 6.47303 22.8183H5.48705V24.1624H6.49688ZM10.8043 25.0274C10.4558 25.0274 10.14 24.9678 9.85998 24.8487C9.58294 24.7295 9.36252 24.5579 9.20166 24.3339C9.0408 24.1099 8.95741 23.8454 8.95145 23.5404H10.0238C10.0387 23.7453 10.1102 23.9074 10.2383 24.0265C10.3723 24.1457 10.5541 24.2053 10.7805 24.2053C11.0158 24.2053 11.1975 24.1504 11.3315 24.0408C11.4656 23.9264 11.5311 23.7787 11.5311 23.5976C11.5311 23.4498 11.4864 23.3283 11.3971 23.233C11.3047 23.1376 11.1915 23.0638 11.0545 23.0113C10.9204 22.9541 10.7328 22.8922 10.4945 22.8254C10.1728 22.7301 9.90766 22.6372 9.70212 22.5466C9.50254 22.4513 9.32679 22.3107 9.18083 22.1248C9.03784 21.9342 8.96632 21.6816 8.96632 21.367C8.96632 21.0715 9.04083 20.8141 9.18679 20.5949C9.33573 20.3756 9.54126 20.2088 9.80936 20.0944C10.0775 19.9753 10.3813 19.9157 10.7238 19.9157C11.2392 19.9157 11.6562 20.042 11.975 20.2946C12.2997 20.5425 12.4784 20.8904 12.5112 21.3384H11.412C11.4001 21.1668 11.3286 21.0262 11.1886 20.9166C11.0545 20.8022 10.8758 20.745 10.6524 20.745C10.4587 20.745 10.3009 20.7951 10.1817 20.8952C10.0655 20.9952 10.0089 21.1406 10.0089 21.3313C10.0089 21.4647 10.0536 21.5767 10.137 21.6673C10.2294 21.7531 10.3396 21.8246 10.4677 21.8817C10.6017 21.9342 10.7864 21.9961 11.0247 22.0676C11.3494 22.1629 11.6145 22.2583 11.8171 22.3536C12.0226 22.4489 12.1984 22.5919 12.3473 22.7826C12.4963 22.9732 12.5678 23.2234 12.5678 23.5332C12.5678 23.8001 12.4992 24.048 12.3622 24.2767C12.2222 24.5055 12.0197 24.689 11.7546 24.8272C11.4865 24.9607 11.1707 25.0274 10.8043 25.0274Z" fill="#5594CA"/>
</svg>
