<svg width="103" height="40" viewBox="0 0 103 40" fill="none" xmlns="http://www.w3.org/2000/svg">
<g clip-path="url(#clip0_3311_3152)">
<path d="M0.658203 0.27063V2.97029H20.4532V0.27063H0.658203ZM23.2577 0.27063V2.97029H51.4665C51.4665 2.97029 48.5852 0.27063 44.7689 0.27063H23.2577ZM57.0002 0.27063V2.97029H74.0661L73.0532 0.27063H57.0002ZM86.3015 0.27063L85.2885 2.97029H102.199V0.27063H86.3015ZM0.658203 5.5208V8.22046H20.4532V5.5208H0.658203ZM23.2577 5.52465V8.22056H54.7398C54.7398 8.22056 54.3722 6.14277 53.7308 5.52465H23.2577ZM57.0002 5.52465V8.22056H75.9372L74.9997 5.52465H57.0002ZM84.2755 5.52465L83.3379 8.22056H102.199V5.52465H84.2755V5.52465ZM6.34678 10.771V13.4745H14.9195V10.771H6.34678V10.771ZM28.9464 10.771V13.4745H37.5191V10.771H28.9464V10.771ZM45.8574 10.771V13.4745H54.4301C54.4301 13.4745 54.9744 12.0468 54.9744 10.771H45.8574V10.771ZM62.6889 10.771V13.4745H77.8877L76.8747 10.771H62.6889V10.771ZM82.4084 10.771L81.3915 13.4745H96.6657V10.771H82.4084V10.771ZM6.34678 16.0251V18.7247H14.9195V16.0251H6.34678V16.0251ZM28.9464 16.0251V18.7247H50.8428C50.8428 18.7247 52.6746 17.3396 53.2581 16.0251H28.9464ZM62.6889 16.0251V18.7247H71.2616V17.222L71.8059 18.7247H87.5092L88.0931 17.222V18.7247H96.6658V16.0251H80.5731L79.7191 18.3117L78.861 16.0251H62.6889ZM6.34678 21.2753V23.9749H14.9195V21.2753H6.34678ZM28.9464 21.2753V23.9749H53.2581C52.6745 22.6648 50.8428 21.2753 50.8428 21.2753H28.9464ZM62.6889 21.2753V23.9749H71.2616V21.2753H62.6889ZM72.8188 21.2753L73.8556 23.9749H85.6301L86.6153 21.2753H72.8188ZM88.093 21.2753V23.9749H96.6657V21.2753H88.093ZM6.34678 26.5254V29.225H14.9195V26.5254H6.34678ZM28.9464 26.5254V29.225H37.5191V26.5254H28.9464ZM45.8574 26.5254V29.225H54.9743C54.9743 27.951 54.43 26.5254 54.43 26.5254H45.8574V26.5254ZM62.6889 26.5254V29.225H71.2616V26.5254H62.6889ZM74.7653 26.5254L75.7704 29.225H83.6638L84.6768 26.5254H74.7653ZM88.093 26.5254V29.225H96.6657V26.5254H88.093ZM0.813086 31.7756V34.4791H20.6081V31.7756H0.813086ZM23.2577 31.7756V34.4791H53.7308C54.3722 33.8601 54.7398 31.7756 54.7398 31.7756H23.2577V31.7756ZM57.1552 31.7756V34.4791H71.2616V31.7756H57.1552ZM76.7158 31.7756L77.7486 34.4791H81.7648L82.7341 31.7756H76.7158ZM88.093 31.7756V34.4791H102.354V31.7756H88.093ZM0.813086 37.0296V39.7293H20.6081V37.0296H0.813086ZM23.2577 37.0296V39.7254H44.7689C48.5852 39.7254 51.4665 37.0296 51.4665 37.0296H23.2577ZM57.1552 37.0296V39.7293H71.2616V37.0296H57.1552ZM78.6742 37.0296L79.6674 39.7217L79.8383 39.7254L80.8473 37.0296H78.6742V37.0296ZM88.093 37.0296V39.7293H102.354V37.0296H88.093Z" fill="#212122"/>
</g>
<defs>
<clipPath id="clip0_3311_3152">
<rect width="101.696" height="39.4586" fill="white" transform="translate(0.658203 0.27063)"/>
</clipPath>
</defs>
</svg>
