<svg width="44" height="44" viewBox="0 0 44 44" fill="none" xmlns="http://www.w3.org/2000/svg">
<path d="M22.8594 34.8906C22.8594 35.3653 22.4747 35.75 22 35.75C21.5253 35.75 21.1406 35.3653 21.1406 34.8906C21.1406 34.416 21.5253 34.0312 22 34.0312C22.4747 34.0312 22.8594 34.416 22.8594 34.8906Z" fill="white"/>
<path d="M41.1641 27.1562C41.1641 24.3129 38.8511 22 36.0078 22C33.1645 22 30.8516 24.3129 30.8516 27.1562C30.8516 29.9996 33.1645 32.3125 36.0078 32.3125C38.8511 32.3125 41.1641 29.9996 41.1641 27.1562ZM36.0078 30.5938C34.1125 30.5938 32.5703 29.0516 32.5703 27.1562C32.5703 25.2609 34.1125 23.7188 36.0078 23.7188C37.9031 23.7188 39.4453 25.2609 39.4453 27.1562C39.4453 29.0516 37.9031 30.5938 36.0078 30.5938Z" fill="white"/>
<path d="M36.0078 32.3125C33.8423 32.3125 31.6827 33.2115 30.2117 34.6691C28.2755 32.1245 25.2898 30.5938 22 30.5938C18.8495 30.5938 15.7967 32.0312 13.7886 34.6691C12.3173 33.2118 10.1581 32.3125 7.99219 32.3125C3.66006 32.3125 0 35.8544 0 40.0469V41.7656C0 42.2403 0.384705 42.625 0.859375 42.625H43.1406C43.6153 42.625 44 42.2403 44 41.7656V40.0469C44 35.8544 40.3399 32.3125 36.0078 32.3125ZM1.71875 40.0469C1.71875 36.7859 4.59161 34.0312 7.99219 34.0312C9.85294 34.0312 11.6982 34.8557 12.8406 36.1663C12.0853 37.6252 11.6875 39.2513 11.6875 40.9062H1.71875V40.0469ZM22 32.3125C26.782 32.3125 30.5938 36.1924 30.5938 40.9062H13.4062C13.4062 36.1297 17.2959 32.3125 22 32.3125ZM42.2812 40.9062H32.3125C32.3125 39.2513 31.9147 37.6252 31.1594 36.1663C32.3018 34.8557 34.1471 34.0312 36.0078 34.0312C39.4084 34.0312 42.2812 36.7859 42.2812 40.0469V40.9062Z" fill="white"/>
<path d="M13.1484 27.1562C13.1484 24.3129 10.8355 22 7.99219 22C5.14886 22 2.83594 24.3129 2.83594 27.1562C2.83594 29.9996 5.14886 32.3125 7.99219 32.3125C10.8355 32.3125 13.1484 29.9996 13.1484 27.1562ZM7.99219 30.5938C6.09686 30.5938 4.55469 29.0516 4.55469 27.1562C4.55469 25.2609 6.09686 23.7188 7.99219 23.7188C9.88751 23.7188 11.4297 25.2609 11.4297 27.1562C11.4297 29.0516 9.88751 30.5938 7.99219 30.5938Z" fill="white"/>
<path d="M28.875 23.7188C28.875 19.9278 25.791 16.8438 22 16.8438C18.209 16.8438 15.125 19.9278 15.125 23.7188C15.125 27.5097 18.209 30.5938 22 30.5938C25.791 30.5938 28.875 27.5097 28.875 23.7188ZM22 28.875C19.1567 28.875 16.8438 26.5621 16.8438 23.7188C16.8438 20.8754 19.1567 18.5625 22 18.5625C24.8433 18.5625 27.1562 20.8754 27.1562 23.7188C27.1562 26.5621 24.8433 28.875 22 28.875Z" fill="white"/>
<path d="M28.8009 6.37314C28.6998 6.06195 28.4309 5.83536 28.107 5.78836L24.4003 5.25024L22.7406 1.85706C22.5966 1.56198 22.2971 1.375 21.9688 1.375C21.6405 1.375 21.3411 1.56198 21.1967 1.85672L19.5374 5.25024L15.8307 5.78802C15.5067 5.83502 15.2378 6.06195 15.1368 6.37314C15.0358 6.68433 15.12 7.02573 15.3543 7.254L18.0385 9.87006L17.4051 13.5644C17.3497 13.8866 17.4823 14.2126 17.7471 14.4046C18.0103 14.5959 18.3608 14.6231 18.6522 14.4701L21.9688 12.7261L25.2868 14.4701C25.5762 14.6225 25.927 14.597 26.1919 14.4046C26.4564 14.2122 26.589 13.8866 26.5336 13.564L25.8995 9.87006L28.5833 7.254C28.8177 7.02573 28.9019 6.68433 28.8009 6.37314ZM24.3758 8.95462C24.1733 9.15201 24.0807 9.43668 24.1287 9.7153L24.5446 12.1387L22.3686 10.9946C22.1182 10.863 21.8191 10.863 21.5687 10.9946L19.3934 12.1387L19.809 9.7153C19.8566 9.43634 19.764 9.15201 19.5616 8.95462L17.8012 7.23889L20.2333 6.88574C20.5146 6.84512 20.7573 6.66788 20.8819 6.41275L21.9688 4.19046L23.0555 6.41275C23.1804 6.66821 23.4231 6.84512 23.704 6.88574L26.1365 7.23889L24.3758 8.95462Z" fill="white"/>
<path d="M41.6461 12.8141C41.545 12.5029 41.2761 12.2763 40.9522 12.2293L38.4409 11.8644L37.318 9.58841C37.1733 9.29501 36.8749 9.10938 36.5476 9.10938C36.5476 9.10938 36.5476 9.10938 36.5472 9.10938C36.2203 9.10938 35.9215 9.29501 35.7768 9.58841L34.6532 11.8644L32.1416 12.2293C31.818 12.2763 31.5491 12.5029 31.448 12.8141C31.3467 13.1253 31.4309 13.4667 31.6652 13.6949L33.4823 15.4671L33.0533 17.968C32.9983 18.2903 33.1305 18.6159 33.3954 18.8082C33.6599 19.0006 34.0107 19.0261 34.3001 18.874L36.5472 17.6934L38.7937 18.874C39.0831 19.0261 39.4342 19.0006 39.6987 18.8082C39.9632 18.6162 40.0955 18.2903 40.0405 17.968L39.6114 15.4671L41.4289 13.6949C41.6632 13.4667 41.7471 13.1253 41.6461 12.8141ZM38.0884 14.552C37.8856 14.7494 37.7933 15.0337 37.8413 15.3123L38.0521 16.5423L36.9474 15.9619C36.6969 15.8303 36.3978 15.8303 36.1477 15.9619L35.042 16.5426L35.2531 15.3123C35.3008 15.0337 35.2085 14.7494 35.0061 14.552L34.1118 13.6798L35.3475 13.5006C35.6274 13.46 35.8695 13.2841 35.9947 13.0306L36.5472 11.9111L37.0994 13.0303C37.2247 13.2841 37.4667 13.46 37.7467 13.5006L38.9823 13.6798L38.0884 14.552Z" fill="white"/>
<path d="M12.4273 12.8141C12.3263 12.5029 12.0574 12.2763 11.7334 12.2293L9.22212 11.8644L8.09923 9.58841C7.95454 9.29501 7.65611 9.10938 7.32881 9.10938C7.00151 9.10938 6.70274 9.29501 6.55806 9.58841L5.43449 11.8644L2.92283 12.2293C2.59922 12.2763 2.33033 12.5029 2.22929 12.8141C2.12791 13.1253 2.21217 13.4667 2.44648 13.6949L4.26359 15.4671L3.83491 17.968C3.77952 18.2903 3.91212 18.6159 4.17665 18.8082C4.44117 19.0006 4.79197 19.0261 5.08168 18.874L7.32847 17.6934L9.57494 18.874C9.86632 19.0271 10.2168 18.9996 10.48 18.8082C10.7445 18.6162 10.8771 18.2903 10.8217 17.968L10.3927 15.4671L12.2101 13.6949C12.4444 13.4667 12.5284 13.1253 12.4273 12.8141ZM8.86931 14.552C8.66689 14.7494 8.57457 15.0337 8.62224 15.3123L8.83339 16.5423L7.72829 15.9619C7.47819 15.8303 7.17909 15.8303 6.929 15.9619L5.82289 16.5426L6.03404 15.3123C6.08204 15.0337 5.98939 14.7494 5.78697 14.552L4.89268 13.6798L6.12871 13.5006C6.40834 13.46 6.65037 13.2841 6.77559 13.0306L7.32814 11.9111L7.88036 13.0303C8.00557 13.2841 8.2476 13.46 8.52757 13.5006L9.76326 13.6798L8.86931 14.552Z" fill="white"/>
<path d="M25.7679 35.1565C25.3711 34.8957 24.8384 35.0061 24.5779 35.4029C24.317 35.7993 24.4275 36.3321 24.8243 36.5929C25.6189 37.1149 26.254 37.8427 26.6609 38.6974C26.8643 39.1254 27.3766 39.3083 27.8059 39.1039C28.2346 38.9001 28.4165 38.3872 28.2128 37.9589C27.671 36.8202 26.8253 35.851 25.7679 35.1565Z" fill="white"/>
</svg>
