<svg width="53" height="60" viewBox="0 0 53 60" fill="none" xmlns="http://www.w3.org/2000/svg">
<path d="M30.2025 29.9436C30.2025 30.7935 29.9018 31.5276 29.3523 32.1712C28.3799 33.3102 27.6423 34.579 27.4383 36.0698C27.1447 38.2251 27.1482 40.3551 28.3571 42.3065C28.7325 42.9161 28.7088 43.5544 28.3509 44.1675C27.5967 45.4229 27.2327 46.8708 27.3047 48.3299C27.368 49.7337 27.332 51.1444 27.4498 52.5429C27.5526 53.7777 28.0933 54.8741 28.8354 55.8799C29.8904 57.3037 29.318 59.2456 27.7012 59.8412C27.182 60.0305 26.6153 60.0506 26.0837 59.8985C25.5522 59.7464 25.0836 59.4301 24.7463 58.9956C24.0342 58.0647 24.0175 56.8482 24.7516 55.8825C25.508 54.915 25.9993 53.7703 26.1776 52.5595C26.2405 52.069 26.2725 51.5752 26.2734 51.0808C26.2884 50.0794 26.2567 49.078 26.2831 48.0774C26.3249 46.7509 25.9862 45.4399 25.3064 44.2963C24.8826 43.5753 24.8668 42.8682 25.3064 42.1602C26.3341 40.517 26.3517 38.6953 26.2655 36.8544C26.1776 35.0518 25.433 33.5305 24.2566 32.1877C23.4478 31.2647 23.1946 30.1979 23.5111 29.0232C23.9595 27.3591 25.6053 26.3237 27.3592 26.5771C28.9804 26.807 30.22 28.2752 30.2025 29.9436Z" fill="url(#paint0_linear_4_8592)"/>
<path d="M3.11507 13.4023C4.55515 13.4711 5.54773 14.0528 6.11744 15.231C6.69505 16.4241 6.55263 17.5822 5.72357 18.6185C4.98682 19.5355 4.27206 20.482 4.03468 21.6324C3.51157 24.1577 3.43333 26.6665 4.79516 29.0186C5.01494 29.3837 5.09652 29.8144 5.02534 30.2336C4.95415 30.6528 4.73484 31.0333 4.40657 31.3071C4.07895 31.5805 3.66504 31.7318 3.23661 31.7347C2.80819 31.7375 2.39226 31.5918 2.06094 31.3228C1.37782 30.7646 1.19232 29.8163 1.66092 28.9986C3.05792 26.5603 2.95506 24.001 2.30271 21.4112C2.03017 20.3314 1.35145 19.4371 0.670089 18.5567C0.353538 18.1504 0.140763 17.6744 0.0498739 17.1692C-0.0410155 16.664 -0.00732833 16.1445 0.148067 15.655C0.303462 15.1655 0.575966 14.7203 0.942386 14.3575C1.30881 13.9948 1.7583 13.725 2.2526 13.5713C2.53597 13.496 2.8241 13.4396 3.11507 13.4023Z" fill="url(#paint1_linear_4_8592)"/>
<path d="M39.2254 12.0911C38.8016 12.0911 38.3682 12.1503 37.9567 12.0798C37.4119 11.9825 36.9144 11.7105 36.5411 11.3056C36.1677 10.9007 35.9392 10.3854 35.8907 9.83916C35.8027 8.61306 36.4595 7.56286 37.5672 7.16403C38.6504 6.77478 39.8179 7.14661 40.5169 8.10799C40.6245 8.24582 40.7149 8.39613 40.7859 8.55559C41.8479 11.2377 44.0037 12.6641 46.6324 13.5331C47.7648 13.9067 48.9437 14.0156 50.135 14.0495C51.925 14.1 53.1119 15.7763 52.5519 17.4274C52.2204 18.4036 51.321 19.1159 50.2977 19.169C49.1301 19.2248 48.2844 18.6709 47.7947 17.6608C46.9155 15.8478 45.551 14.5119 43.863 13.4365C42.4405 12.5265 40.9274 12.0162 39.2254 12.0911Z" fill="url(#paint2_linear_4_8592)"/>
<path d="M50.1306 28.0391C51.6006 28.0478 52.4789 29.5734 51.7448 30.8788C51.1107 31.9746 50.7067 33.1861 50.557 34.4404C50.2651 37.0581 50.6449 39.512 52.1975 41.7352C53.213 43.1894 52.5958 45.0739 50.9887 45.6399C50.4883 45.8152 49.9457 45.8341 49.4342 45.6939C48.9226 45.5537 48.4669 45.2613 48.1287 44.8562C47.4104 43.9897 47.3744 42.8585 47.9256 41.8493C48.4241 40.9375 49.0088 40.0205 49.2382 39.0278C49.8748 36.2874 49.757 33.5626 48.5041 30.9667C48.2791 30.4991 48.1305 30.0263 48.2588 29.4994C48.476 28.6086 49.2031 28.0391 50.1306 28.0391Z" fill="url(#paint3_linear_4_8592)"/>
<path d="M41.1248 23.2866C40.949 23.7525 40.8478 24.2672 40.5832 24.6799C39.4878 26.385 39.0051 28.2502 38.9726 30.247C38.9655 30.6241 38.991 31.0029 38.9664 31.3791C38.8539 33.0662 39.1968 34.7527 39.9599 36.2652C40.1357 36.6134 40.1782 37.013 40.0794 37.3899C39.9807 37.7668 39.7474 38.0955 39.4227 38.3151C39.1148 38.529 38.7439 38.6354 38.3683 38.6176C37.9927 38.5998 37.6337 38.4587 37.3479 38.2167C36.8019 37.7499 36.6516 37.0463 36.896 36.3122C37.1966 35.4066 37.5931 34.5079 37.7285 33.5753C38.1796 30.4499 38.118 27.3881 36.2621 24.6059C35.6519 23.6907 35.7108 22.6901 36.35 21.7836C36.9892 20.8771 37.9009 20.5523 38.9682 20.763C40.0038 20.9677 40.665 21.6338 40.9454 22.644C40.9872 22.8423 41.0166 23.0429 41.0334 23.2448L41.1248 23.2866Z" fill="url(#paint4_linear_4_8592)"/>
<path d="M14.9121 20.7051C15.9934 20.7338 16.7583 21.1596 17.2401 22.0113C17.7404 22.8943 17.7105 23.7991 17.161 24.6516C16.5183 25.6487 15.9776 26.6867 15.7218 27.8492C15.64 28.2158 15.5512 28.5929 15.5547 28.9647C15.5723 30.5862 15.5363 32.2155 15.6954 33.8247C15.7763 34.6485 16.2009 35.4479 16.5201 36.2377C16.979 37.3698 16.2774 38.568 15.0897 38.6133C13.8026 38.6621 12.9313 37.4003 13.4896 36.2473C14.8962 33.344 14.7283 30.3302 14.0514 27.3215C13.8377 26.3714 13.2698 25.4867 12.7897 24.6133C11.9484 23.0833 12.6544 21.2511 14.3116 20.8017C14.5095 20.7572 14.7101 20.7249 14.9121 20.7051Z" fill="url(#paint5_linear_4_8592)"/>
<path d="M26.8097 0.0130709C27.2488 0.00784267 27.6846 0.0894586 28.0915 0.253139C28.4984 0.416819 28.8683 0.659273 29.1794 0.966302C29.4905 1.27333 29.7367 1.63876 29.9034 2.04119C30.0702 2.44363 30.1542 2.87497 30.1505 3.30996C30.1491 4.18996 29.7961 5.03365 29.1686 5.65664C28.5411 6.27963 27.6902 6.63127 26.8017 6.63472C24.9405 6.63472 23.4046 5.11864 23.438 3.28123C23.4785 1.119 25.3634 -0.143675 26.8097 0.0130709Z" fill="url(#paint6_linear_4_8592)"/>
<path d="M26.7857 18.4155C26.4245 18.4147 26.0716 18.3076 25.772 18.1076C25.4724 17.9076 25.2397 17.6239 25.1033 17.2926C24.967 16.9612 24.9333 16.5971 25.0065 16.2467C25.0797 15.8963 25.2564 15.5754 25.5143 15.3248C25.7722 15.0742 26.0995 14.9052 26.4546 14.8394C26.8097 14.7735 27.1765 14.8138 27.5084 14.9551C27.8403 15.0964 28.1223 15.3323 28.3185 15.6328C28.5146 15.9333 28.6161 16.2847 28.61 16.6425C28.6097 16.8781 28.5621 17.1113 28.4698 17.3285C28.3776 17.5457 28.2427 17.7425 28.0729 17.9076C27.9031 18.0726 27.7018 18.2025 27.4809 18.2897C27.2599 18.3769 27.0236 18.4197 26.7857 18.4155Z" fill="#387FB9"/>
<path d="M16.826 9.59433C16.82 9.94848 16.7085 10.293 16.5055 10.5846C16.3025 10.8762 16.0171 11.1019 15.6851 11.2335C15.353 11.365 14.9892 11.3965 14.6392 11.324C14.2891 11.2515 13.9685 11.0782 13.7175 10.8259C13.4666 10.5736 13.2964 10.2535 13.2284 9.90574C13.1604 9.558 13.1976 9.19812 13.3354 8.87125C13.4731 8.54438 13.7052 8.26507 14.0026 8.06838C14.3 7.87168 14.6494 7.76636 15.007 7.76563C15.2482 7.7656 15.487 7.81308 15.7095 7.90531C15.932 7.99754 16.1337 8.13267 16.303 8.30284C16.4723 8.47302 16.6057 8.67483 16.6955 8.89655C16.7853 9.11827 16.8296 9.35546 16.826 9.59433Z" fill="#3B96DC"/>
<path d="M40.1098 49.8277C40.1014 50.1547 39.9953 50.472 39.8048 50.7393C39.6144 51.0066 39.3482 51.212 39.04 51.3295C38.7317 51.447 38.3952 51.4714 38.073 51.3995C37.7508 51.3277 37.4573 51.1628 37.2296 50.9257C37.002 50.6887 36.8504 50.3901 36.794 50.0678C36.7377 49.7454 36.779 49.4137 36.9129 49.1147C37.0468 48.8156 37.2672 48.5626 37.5463 48.3875C37.8254 48.2125 38.1505 48.1234 38.4807 48.1314C38.923 48.1448 39.3422 48.3304 39.6471 48.648C39.9521 48.9656 40.1184 49.3895 40.1098 49.8277Z" fill="#20326B"/>
<defs>
<linearGradient id="paint0_linear_4_8592" x1="29.9365" y1="27.5858" x2="15.109" y2="32.4422" gradientUnits="userSpaceOnUse">
<stop offset="0.5" stop-color="#2D5295"/>
<stop offset="1" stop-color="#1D2665"/>
</linearGradient>
<linearGradient id="paint1_linear_4_8592" x1="6.21486" y1="13.9758" x2="-5.56417" y2="20.6494" gradientUnits="userSpaceOnUse">
<stop stop-color="#406EA2"/>
<stop offset="1" stop-color="#404C95"/>
</linearGradient>
<linearGradient id="paint2_linear_4_8592" x1="52.0359" y1="7.39214" x2="45.2133" y2="22.5373" gradientUnits="userSpaceOnUse">
<stop stop-color="#92CDF2"/>
<stop offset="1" stop-color="#3B7CB2"/>
</linearGradient>
<linearGradient id="paint3_linear_4_8592" x1="52.4918" y1="28.5942" x2="42.3173" y2="33.332" gradientUnits="userSpaceOnUse">
<stop stop-color="#4194CE"/>
<stop offset="1" stop-color="#1F5194"/>
</linearGradient>
<linearGradient id="paint4_linear_4_8592" x1="40.9185" y1="21.2617" x2="30.5283" y2="26.1871" gradientUnits="userSpaceOnUse">
<stop stop-color="#4999CE"/>
<stop offset="1" stop-color="#4462B1"/>
</linearGradient>
<linearGradient id="paint5_linear_4_8592" x1="17.3939" y1="21.2653" x2="7.16614" y2="25.9995" gradientUnits="userSpaceOnUse">
<stop stop-color="#517DA9"/>
<stop offset="1" stop-color="#1D3771"/>
</linearGradient>
<linearGradient id="paint6_linear_4_8592" x1="29.8888" y1="0.207544" x2="25.4523" y2="7.41694" gradientUnits="userSpaceOnUse">
<stop stop-color="#92C8EA"/>
<stop offset="1" stop-color="#4790C3"/>
</linearGradient>
</defs>
</svg>
