<svg width="120" height="32" viewBox="0 0 120 32" fill="none" xmlns="http://www.w3.org/2000/svg">
<path fill-rule="evenodd" clip-rule="evenodd" d="M19.691 5.04243C21.243 3.87157 22.659 1.80215 24.3472 0.467917C25.7903 1.23034 27.1246 2.15613 28.3226 3.16362C25.9265 5.83208 23.3125 8.25548 20.6168 10.9512C19.5548 12.0131 18.4657 14.137 16.2056 13.4018C15.3615 13.1295 14.2451 11.6864 13.5099 10.9512C10.9504 8.39163 8.173 5.64148 5.88574 3.16362C7.0566 2.10167 8.41806 1.23034 9.86121 0.467917C11.5494 1.9383 12.9381 3.7082 14.6808 5.12412C14.8442 3.8988 14.463 2.91855 14.6808 1.82938C15.1437 -0.675712 19.2281 -0.62125 19.6637 2.07445C19.8271 3.00024 19.5821 3.7082 19.691 5.04243Z" fill="#C60352"/>
<path fill-rule="evenodd" clip-rule="evenodd" d="M65.599 23.8035C66.4703 24.8654 67.6412 25.6551 68.6486 26.6081C67.6684 27.6973 66.552 28.6231 65.5173 29.6578C64.3464 28.7592 63.3389 27.7245 62.2225 26.7715C58.8461 29.0587 52.9646 28.8953 49.6154 27.6156C46.0484 26.2541 43.5705 23.2589 42.5086 19.5013C39.9762 10.4611 44.578 1.91114 53.6725 1.23041C62.5765 0.576911 68.0496 5.83216 68.4853 13.8376C68.7031 17.813 67.6684 21.3256 65.599 23.8035ZM55.9598 5.96831C50.405 5.55987 48.0361 9.48088 47.8455 14.1643C47.6549 18.7388 49.5882 23.3406 54.1082 23.8035C55.7147 23.9668 57.0217 23.6946 58.1654 23.2044C58.002 22.8232 57.4302 22.4148 56.8856 21.9247C56.6133 21.6796 55.4424 20.8899 55.4424 20.5632C55.4424 20.3454 55.987 19.9914 56.2049 19.8008C56.5044 19.5285 56.8584 19.2834 57.049 19.12C57.3485 18.8477 58.2198 17.5952 58.5738 17.5952C58.6555 17.5952 59.0367 18.1398 59.1729 18.2759C59.9897 19.0111 60.5343 19.3923 61.2967 20.0458C63.9107 14.1643 62.2225 6.40398 55.9598 5.96831Z" fill="#092A5B"/>
<path fill-rule="evenodd" clip-rule="evenodd" d="M76.7627 27.7516V9.83471C79.894 14.6543 83.3249 20.4813 86.4835 25.6549C86.8647 26.2812 87.4093 27.3976 87.845 27.7516H93.7537V1.96545H88.2534C88.0628 7.6836 88.2262 13.783 88.1717 19.6372C84.4958 13.783 81.0649 7.6836 77.2528 1.96545H71.344C71.2351 1.99268 71.1807 2.07437 71.1807 2.21052V27.7243H76.7627V27.7516Z" fill="#092A5B"/>
<path fill-rule="evenodd" clip-rule="evenodd" d="M96.5597 1.99272C104.375 2.51007 115.293 0.168356 118.044 5.72312C119.514 8.69111 118.316 13.1839 115.348 13.9191C116.873 14.6543 118.098 15.4167 118.806 16.8054C119.895 18.9021 119.596 21.9245 118.724 23.6672C115.784 29.4943 104.81 27.561 96.478 27.8877C96.478 19.3378 96.478 10.7878 96.478 2.26501C96.478 2.12886 96.478 1.99272 96.5597 1.99272ZM102.142 6.89398C102.142 8.63666 102.142 10.3793 102.142 12.1492C105.082 11.7408 109.82 12.9117 111.863 11.5502C112.707 10.9784 113.251 9.56245 112.707 8.25545C111.563 5.55975 105.845 7.05736 102.223 6.64892C102.142 6.64892 102.142 6.75784 102.142 6.89398ZM102.142 16.7782C102.142 18.9293 102.142 21.0532 102.142 23.2043C105.6 22.8776 111.127 24.0756 112.788 21.9245C113.36 21.1893 113.741 19.5556 113.224 18.2758C111.999 15.3895 106.144 16.8871 102.223 16.5059C102.142 16.5331 102.142 16.6693 102.142 16.7782Z" fill="#092A5B"/>
<path fill-rule="evenodd" clip-rule="evenodd" d="M2.18189 22.7143C3.59781 20.9988 5.42217 19.6918 6.91978 18.0581C4.85036 18.0581 2.80816 18.0581 0.738741 18.0581C0.41199 16.5877 0.439218 14.6544 0.657052 13.0751C2.72648 13.0751 4.76867 13.0751 6.83809 13.0751C5.58555 11.4958 3.65227 9.88928 2.18189 8.25552C2.86262 6.67622 3.81565 5.39645 4.87759 4.19836C7.19207 6.48562 9.96946 9.20854 12.6652 11.9042C13.836 13.0751 15.6059 14.137 15.0341 16.2065C14.789 17.1595 13.4548 18.2214 12.6652 19.0111C10.4868 21.1894 8.55354 23.1227 6.23905 25.4372C5.99399 25.6822 5.04096 26.717 4.95928 26.717C4.57807 26.717 3.70673 25.2466 3.43444 24.8654C2.91708 24.0485 2.50864 23.3678 2.18189 22.7143Z" fill="#092A5B"/>
<path fill-rule="evenodd" clip-rule="evenodd" d="M32.0246 8.14662C30.5814 9.91653 28.8115 11.3597 27.2867 13.0479C29.3561 13.0479 31.3983 13.0479 33.4677 13.0479C33.8217 14.6 33.7128 16.4515 33.4677 18.0308C31.4255 18.0308 29.4106 18.0308 27.3684 18.0308C28.512 19.5557 30.8265 21.1077 31.9429 22.687C31.3166 24.2391 30.2819 25.4372 29.3289 26.6625C26.9055 24.3753 24.2915 21.6251 21.7047 19.0383C20.6155 17.9492 18.3282 16.6422 19.1724 14.4638C19.4719 13.6742 20.7516 12.6122 21.5413 11.8498C24.1008 9.29025 26.9327 6.59455 29.2472 4.14392C30.418 5.26032 31.2077 6.70347 32.0246 8.14662Z" fill="#092A5B"/>
<path fill-rule="evenodd" clip-rule="evenodd" d="M28.3233 27.6972C27.0707 28.6503 25.8726 29.6577 24.3478 30.3112C22.6051 28.9498 21.3526 27.0982 19.6916 25.655C19.6916 27.7245 19.6916 29.7667 19.6916 31.8361C18.1123 32.0267 16.2607 32.0811 14.7086 31.8361C14.7086 29.7939 14.7086 27.7789 14.7086 25.7367C13.1566 26.9076 11.4411 29.1404 9.88905 30.3112C8.33698 29.6577 7.13889 28.6775 5.91357 27.6972C8.11914 25.2194 10.8421 22.6871 13.3472 20.182C14.4363 19.0928 15.8795 16.6149 18.0851 17.568C18.9292 17.9219 20.0183 19.2289 20.7807 20.0186C23.3675 22.5781 25.8998 25.0832 28.3233 27.6972Z" fill="#092A5B"/>
</svg>
