<svg width="60" height="60" viewBox="0 0 60 60" fill="none" xmlns="http://www.w3.org/2000/svg">
<path fill-rule="evenodd" clip-rule="evenodd" d="M9.31056 21.1298L18.222 17.9846C16.3821 20.4617 14.8014 23.1221 13.5054 25.924L9.31056 21.1298ZM3.11861 21.6462L11.3747 31.0818L10.1789 34.0715C9.80746 35 10.0251 36.0605 10.7323 36.7677L11.5163 37.5518C7.25862 42.3528 4.90681 47.374 2.62836 54.2095C2.32891 55.1077 2.56271 56.0982 3.23229 56.7677C3.90189 57.4372 4.89229 57.6712 5.79064 57.3717C12.626 55.0932 17.6473 52.7415 22.4483 48.4837L23.2323 49.2677C23.9395 49.975 25 50.1925 25.9286 49.8212L28.9183 48.6252L38.3538 56.8815C38.9778 57.4275 39.8318 57.6285 40.6338 57.4183C41.4361 57.208 42.0816 56.614 42.3576 55.832L49.8228 34.6805C54.7443 28.857 57.5001 21.437 57.5001 13.702V5C57.5001 3.6193 56.3808 2.5 55.0001 2.5H46.2981C38.5631 2.5 31.1431 5.25562 25.3196 10.1772L4.16801 17.6425C3.38616 17.9185 2.79197 18.5641 2.58177 19.3661C2.37154 20.1682 2.57264 21.0223 3.11861 21.6462ZM9.21324 50.7867C10.782 46.998 12.5426 43.9822 15.059 41.0945L18.9056 44.941C16.0179 47.4575 13.0021 49.218 9.21324 50.7867ZM25.6021 44.5665L24.2678 43.2323L16.7678 35.7323L15.4335 34.398L17.2082 29.961C18.8367 25.89 21.1235 22.1142 23.977 18.785L25.4186 17.1032C30.6431 11.008 38.2701 7.5 46.2981 7.5H52.5001V13.702C52.5001 21.7299 48.9921 29.357 42.8968 34.5815L41.2151 36.023C37.8858 38.8765 34.1101 41.1632 30.0391 42.7917L25.6021 44.5665ZM38.8703 50.6895L34.0761 46.4948C36.8781 45.1988 39.5383 43.618 42.0156 41.778L38.8703 50.6895ZM37.5001 20C37.5001 18.6193 38.6193 17.5 40.0001 17.5C41.3808 17.5 42.5001 18.6193 42.5001 20C42.5001 21.3807 41.3808 22.5 40.0001 22.5C38.6193 22.5 37.5001 21.3807 37.5001 20ZM40.0001 12.5C35.8578 12.5 32.5001 15.8579 32.5001 20C32.5001 24.1421 35.8578 27.5 40.0001 27.5C44.1423 27.5 47.5001 24.1421 47.5001 20C47.5001 15.8579 44.1423 12.5 40.0001 12.5Z" fill="white"/>
</svg>
