<svg width="60" height="60" viewBox="0 0 60 60" fill="none" xmlns="http://www.w3.org/2000/svg">
<g clip-path="url(#clip0_3311_3390)">
<path d="M0 15.16V44.84H30.325L60 15.16H0ZM8.16 20.68H8.1725C10.33 20.6825 12.96 21.2925 14.8625 22.2625L12.8125 25.8375C10.725 24.8275 9.675 24.7325 8.4875 24.67C6.7175 24.575 5.8275 25.2075 5.815 25.89C5.7975 26.72 7.4875 27.4725 9.0775 27.985C11.4875 28.75 14.5525 29.7725 15.02 32.735L19.425 21.0925H24.54L29.7 35.0325L29.6825 21.095H35.6075C41.25 21.095 43.9025 23.005 43.9025 27.3925C43.9025 31.33 41.1775 33.6775 36.5625 33.6775H34.655L34.63 38.9125L25.66 38.905L25.035 36.635C24.11 36.94 23.0675 37.1075 21.96 37.1075C20.82 37.1075 19.7475 36.93 18.8025 36.6075L17.9075 38.905L12.9075 38.92L13.1325 37.765C13.06 37.8275 12.99 37.89 12.915 37.95C11.5775 39.025 9.895 39.5225 7.8225 39.56L7.29 39.565C5.02716 39.588 2.79935 39.0054 0.8375 37.8775L2.6625 34.2575C4.6375 35.425 5.8775 35.6875 7.5525 35.6525C8.42 35.635 9.0475 35.4775 9.455 35.055C9.69491 34.8065 9.83391 34.4778 9.845 34.1325C9.8625 33.1925 8.52 32.75 6.8825 32.2425C5.555 31.8325 4.045 31.27 2.8675 30.405C1.47 29.38 0.805 28.095 0.8375 26.28C0.845991 24.9927 1.35319 23.7587 2.2525 22.8375C3.55 21.495 5.645 20.68 8.16 20.68ZM34.6525 24.855V29.615H35.955C37.69 29.615 39.0725 29.04 39.075 27.205C39.075 25.4325 37.69 24.855 35.955 24.855H34.6525ZM21.935 26.7725L20.065 32.6775C20.6225 32.89 21.2675 33.01 21.9575 33.01C22.6275 33.01 23.2575 32.8925 23.8125 32.695L21.9725 26.77L21.935 26.7725Z" fill="white"/>
</g>
<defs>
<clipPath id="clip0_3311_3390">
<rect width="60" height="60" fill="white"/>
</clipPath>
</defs>
</svg>
