<svg width="44" height="44" viewBox="0 0 44 44" fill="none" xmlns="http://www.w3.org/2000/svg">
    <path d="M28.2149 9.5515L30.7999 14.7215C31.1482 15.4365 32.0832 16.1148 32.8716 16.2615L37.5466 17.0315C40.5349 17.5265 41.2316 19.6898 39.0866 21.8532L35.4382 25.5015C34.8332 26.1065 34.4849 27.2982 34.6866 28.1598L35.7316 32.6698C36.5566 36.2265 34.6499 37.6198 31.5149 35.7498L27.1332 33.1465C26.3449 32.6698 25.0249 32.6698 24.2366 33.1465L19.8549 35.7498C16.7199 37.6015 14.8132 36.2265 15.6382 32.6698L16.6833 28.1598C16.8849 27.3165 16.5366 26.1248 15.9316 25.5015L12.2833 21.8532C10.1383 19.7082 10.8349 17.5448 13.8233 17.0315L18.4982 16.2615C19.2866 16.1331 20.2216 15.4365 20.5699 14.7215L23.1549 9.5515C24.5299 6.7465 26.8033 6.7465 28.2149 9.5515Z" stroke="white" stroke-width="3" stroke-linecap="round" stroke-linejoin="round"/>
    <path d="M14.6665 9.1665H3.6665" stroke="white" stroke-width="3" stroke-linecap="round" stroke-linejoin="round"/>
    <path d="M9.1665 34.8335H3.6665" stroke="white" stroke-width="3" stroke-linecap="round" stroke-linejoin="round"/>
    <path d="M5.49984 22H3.6665" stroke="white" stroke-width="3" stroke-linecap="round" stroke-linejoin="round"/>
    </svg>
    