<svg width="100" height="60" viewBox="0 0 100 60" fill="none" xmlns="http://www.w3.org/2000/svg">
<path d="M16.46 59.9782C20.9248 60.1729 25.2797 58.2918 28.6165 54.7272C29.6988 53.4502 30.5541 51.9233 31.1308 50.2384C31.7074 48.5538 31.9935 46.7464 31.9717 44.9253C31.9851 43.2271 31.7169 41.5429 31.1826 39.9703C30.6484 38.3977 29.8587 36.9682 28.8597 35.7653C26.4952 33.0935 23.5113 31.344 20.3016 30.7475L14.2961 29.3474C11.8648 28.7638 10.406 27.276 10.406 25.2341C10.406 22.5209 12.5942 20.654 16.0952 20.654C18.0494 20.563 19.9544 21.4016 21.3956 22.9878C22.2047 24.0459 22.7152 25.3831 22.8544 26.8094L31.5098 24.4756C31.2338 21.5166 30.0974 18.7691 28.3006 16.7157C24.9991 13.0559 20.637 11.0879 16.144 11.2313C11.9567 11.0733 7.87178 12.8008 4.69244 16.0739C3.53311 17.3597 2.61 18.9214 1.98205 20.6594C1.3541 22.3974 1.03511 24.2733 1.04547 26.1676C1.00221 27.75 1.22778 29.3263 1.70846 30.8009C2.18914 32.2754 2.91488 33.6171 3.84148 34.7443C6.12053 37.2775 8.93963 39.0041 11.9864 39.7326L17.8945 41.4246C20.8607 42.2416 22.1736 43.5542 22.1736 45.888C22.1736 48.8052 20.0098 50.468 16.4356 50.468C15.3333 50.5324 14.2316 50.3249 13.1987 49.8583C12.1658 49.3917 11.2236 48.6759 10.4303 47.755C9.48257 46.6098 8.92732 45.0794 8.8743 43.4667L0 45.8006C0.271586 48.9328 1.46051 51.8478 3.35521 54.0271C5.10023 55.9986 7.15675 57.5306 9.40335 58.5326C11.65 59.5348 14.0411 59.9865 16.4356 59.8615L16.46 59.9782ZM82.0812 59.8615C84.512 59.9426 86.9321 59.4455 89.2022 58.399C91.4723 57.3527 93.5473 55.7776 95.3076 53.7645C97.5592 51.1963 99.1819 47.9377 100 44.342L90.8825 40.6953C90.4568 42.5546 89.6162 44.239 88.4512 45.5671C86.738 47.503 84.4581 48.5511 82.1055 48.4843C80.8232 48.5009 79.5508 48.2131 78.3616 47.6373C77.1725 47.0615 76.0899 46.2093 75.1763 45.1295C73.261 42.4963 72.2604 39.0821 72.3803 35.5903C72.2483 32.0542 73.2785 28.5974 75.2492 25.9634C77.0883 23.8361 79.5512 22.6624 82.1055 22.6961C83.2425 22.6533 84.3746 22.89 85.4325 23.3917C86.4903 23.8934 87.4514 24.6494 88.2568 25.6132C89.3937 27.0022 90.2287 28.7054 90.6881 30.5725L99.9514 26.8386C99.1767 23.3634 97.6792 20.1815 95.5992 17.5909C93.7823 15.5207 91.6413 13.9032 89.3002 12.8316C86.959 11.7601 84.4641 11.2558 81.9597 11.348C79.3555 11.3109 76.771 11.8924 74.355 13.059C71.9389 14.2255 69.7392 15.9541 67.8823 18.1452C64.1834 22.9034 62.1387 29.1767 62.1659 35.6832C62.1929 42.1899 64.29 48.4384 68.0281 53.1519C71.7954 57.5501 76.8494 60.0008 82.1055 59.9782L82.0812 59.8615ZM50.6686 59.9782C53.586 60.1206 56.4601 59.0944 58.8379 57.061V47.0842C57.308 48.3417 55.489 48.9945 53.6348 48.9511C52.9359 49.1056 52.2162 49.0526 51.5384 48.7965C50.8606 48.5402 50.2455 48.0889 49.7465 47.4817C49.2477 46.8744 48.8803 46.13 48.6765 45.313C48.4729 44.4962 48.4389 43.632 48.5777 42.7957V0H38.3419V12.6316H58.8865V24.5631H38.3419V45.7713C38.2019 49.512 39.2935 53.1689 41.381 55.9526C42.6353 57.3359 44.1072 58.4046 45.7105 59.0958C47.3137 59.7871 49.0159 60.0871 50.7172 59.9782" fill="#4F008C"/>
</svg>
